<svg width="109" height="109" viewBox="0 0 109 109" fill="none" xmlns="http://www.w3.org/2000/svg">
<path d="M54.5 52.7423C66.03 52.7423 75.3769 43.3954 75.3769 31.8654C75.3769 20.3354 66.03 10.9885 54.5 10.9885C42.97 10.9885 33.6231 20.3354 33.6231 31.8654C33.6231 43.3954 42.97 52.7423 54.5 52.7423Z" fill="#2B90C0"/>
<path d="M79.0659 18.9047C78.7797 18.9047 78.5141 18.9728 78.2347 18.9898C80.3884 22.9405 81.514 27.3693 81.5082 31.8688C81.5101 35.4145 80.8117 38.9257 79.4533 42.2009C78.0948 45.476 76.103 48.4506 73.592 50.9541C75.3463 51.5972 77.1975 51.9359 79.0659 51.9555C83.4487 51.9555 87.652 50.2144 90.7511 47.1153C93.8502 44.0162 95.5913 39.8129 95.5913 35.4301C95.5913 31.0473 93.8502 26.844 90.7511 23.7448C87.652 20.6457 83.4487 18.9047 79.0659 18.9047Z" fill="#2B90C0"/>
<path d="M54.5 52.7423C66.03 52.7423 75.3769 43.3954 75.3769 31.8654C75.3769 20.3354 66.03 10.9885 54.5 10.9885C42.97 10.9885 33.6231 20.3354 33.6231 31.8654C33.6231 43.3954 42.97 52.7423 54.5 52.7423Z" fill="#2B90C0"/>
<path d="M19.1568 76.1058C19.1568 69.1979 21.5922 62.7704 25.724 57.6439C22.5707 57.0542 19.5794 55.7989 16.9495 53.9618C13.9012 55.5035 11.34 57.8602 9.55051 60.77C7.76099 63.6797 6.81323 67.0286 6.8125 70.4446V73.0879C6.8125 75.0567 8.19544 76.7564 10.1302 77.1277C12.862 77.6523 15.8833 78.1155 19.1568 78.4493V76.1058ZM27.4918 31.8654C27.4918 27.2057 28.6772 22.8184 30.7652 18.9864C30.4859 18.9728 30.2203 18.9047 29.9341 18.9047C25.5518 18.9047 21.3489 20.6456 18.2501 23.7443C15.1513 26.8431 13.4104 31.046 13.4104 35.4284C13.4104 39.8107 15.1513 44.0136 18.2501 47.1124C21.3489 50.2112 25.5518 51.9521 29.9341 51.9521C31.8621 51.9521 33.6878 51.557 35.408 50.9507C32.8966 48.4476 30.9044 45.473 29.5459 42.1978C28.1874 38.9226 27.4894 35.4112 27.4918 31.8654ZM87.1251 61.7587C92.6984 61.7569 98.0465 63.9584 102.004 67.8831C101.588 64.9332 100.466 62.1272 98.7332 59.704C97.0003 57.2808 94.7077 55.312 92.0505 53.9652C89.4195 55.8003 86.4286 57.0554 83.276 57.6474C84.3319 58.9554 85.2721 60.3485 86.093 61.8132C86.437 61.7928 86.7776 61.7587 87.1251 61.7587ZM65.9314 82.9524C65.9314 73.8645 71.6913 66.1153 79.7437 63.111C77.1596 59.2579 73.4908 56.2576 69.2014 54.4898C64.8312 57.3521 59.7207 58.8768 54.4966 58.8768C49.2725 58.8768 44.162 57.3521 39.7918 54.4898C35.5016 56.2469 31.8311 59.2405 29.2471 63.0897C26.6632 66.9389 25.2827 71.4697 25.2812 76.1058V79.4439C25.2812 81.9339 27.0286 84.0764 29.4709 84.5465C36.4469 85.8818 44.8944 86.9207 54.4932 86.9207C58.4109 86.9119 62.3263 86.7289 66.2277 86.3723C66.0393 85.2419 65.9402 84.0984 65.9314 82.9524ZM87.1319 67.8865C78.8206 67.8865 72.0762 74.6309 72.0762 82.9422C72.0762 91.2534 78.8206 97.9978 87.1319 97.9978C95.4431 97.9978 102.188 91.2534 102.188 82.9422C102.188 74.6309 95.4431 67.8865 87.1319 67.8865ZM92.2821 86.018H90.1907V88.106C90.1907 88.9191 89.8677 89.6989 89.2928 90.2738C88.7179 90.8487 87.9381 91.1717 87.1251 91.1717C86.312 91.1717 85.5323 90.8487 84.9573 90.2738C84.3824 89.6989 84.0594 88.9191 84.0594 88.106V86.018H81.968C81.1549 86.018 80.3752 85.695 79.8003 85.1201C79.2254 84.5452 78.9024 83.7654 78.9024 82.9524C78.9024 82.1393 79.2254 81.3596 79.8003 80.7847C80.3752 80.2097 81.1549 79.8868 81.968 79.8868H84.0594V77.7987C84.0594 76.9857 84.3824 76.2059 84.9573 75.631C85.5323 75.0561 86.312 74.7331 87.1251 74.7331C87.9381 74.7331 88.7179 75.0561 89.2928 75.631C89.8677 76.2059 90.1907 76.9857 90.1907 77.7987V79.8868H92.2821C93.0952 79.8868 93.8749 80.2097 94.4498 80.7847C95.0248 81.3596 95.3478 82.1393 95.3478 82.9524C95.3478 83.7654 95.0248 84.5452 94.4498 85.1201C93.8749 85.695 93.0952 86.018 92.2821 86.018Z" fill="#2B90C0"/>
</svg>
