<svg width="38" height="49" viewBox="0 0 38 49" fill="none" xmlns="http://www.w3.org/2000/svg">
<g clip-path="url(#clip0_321_1746)">
<path d="M5.14453 49H33.8555C36.2302 49 38.1621 47.0681 38.1621 44.6934V14.3555H28.1133C25.7385 14.3555 23.8066 12.4236 23.8066 10.0488V0H5.14453C2.76975 0 0.837891 1.93186 0.837891 4.30664V44.6934C0.837891 47.0681 2.76975 49 5.14453 49ZM10.8867 20.1934H28.1133C28.9068 20.1934 29.5488 20.8354 29.5488 21.6289C29.5488 22.4224 28.9068 23.0645 28.1133 23.0645H10.8867C10.0932 23.0645 9.45117 22.4224 9.45117 21.6289C9.45117 20.8354 10.0932 20.1934 10.8867 20.1934ZM10.8867 25.9355H28.1133C28.9068 25.9355 29.5488 26.5776 29.5488 27.3711C29.5488 28.1646 28.9068 28.8066 28.1133 28.8066H10.8867C10.0932 28.8066 9.45117 28.1646 9.45117 27.3711C9.45117 26.5776 10.0932 25.9355 10.8867 25.9355ZM10.8867 31.6777H28.1133C28.9068 31.6777 29.5488 32.3198 29.5488 33.1133C29.5488 33.9068 28.9068 34.5488 28.1133 34.5488H10.8867C10.0932 34.5488 9.45117 33.9068 9.45117 33.1133C9.45117 32.3198 10.0932 31.6777 10.8867 31.6777ZM10.8867 37.4199H22.3711C23.1646 37.4199 23.8066 38.062 23.8066 38.8555C23.8066 39.6489 23.1646 40.291 22.3711 40.291H10.8867C10.0932 40.291 9.45117 39.6489 9.45117 38.8555C9.45117 38.062 10.0932 37.4199 10.8867 37.4199Z" fill="#2B90C0"/>
<path d="M28.1133 11.4845H37.321L26.6777 0.841309V10.049C26.6777 10.841 27.3212 11.4845 28.1133 11.4845Z" fill="#2B90C0"/>
</g>
<defs>
<clipPath id="clip0_321_1746">
<rect width="38" height="49" fill="white"/>
</clipPath>
</defs>
</svg>
