<svg width="92" height="100" viewBox="0 0 92 100" fill="none" xmlns="http://www.w3.org/2000/svg">
<rect x="33.4015" y="79.1636" width="25.7668" height="6.68029" rx="1.90865" fill="#2B90C0"/>
<rect x="16.2235" y="90.5698" width="60.1226" height="6.68029" rx="1.90865" fill="#2B90C0"/>
<path fill-rule="evenodd" clip-rule="evenodd" d="M3.81731 6C1.70907 6 0 7.70906 0 9.81731V70.1827C0 72.2909 1.70907 74 3.81731 74H88.1827C90.2909 74 92 72.2909 92 70.1827V9.81731C92 7.70907 90.2909 6 88.1827 6H3.81731ZM34.7253 41.5723L40.5705 32.6508L45.7456 52.3163C46.5179 55.2509 50.4871 55.7184 51.92 53.0435L57.2566 43.082H73.4832V38.3103H56.3995C55.1682 38.3103 54.0367 38.9878 53.4552 40.0732L49.4334 47.5805L44.3663 28.3253C43.6301 25.5277 39.9276 24.9251 38.3422 27.3449L31.158 38.3103H18.1322V43.082H31.9314C33.0577 43.082 34.1081 42.5144 34.7253 41.5723Z" fill="#2B90C0"/>
</svg>
