<svg width="110" height="110" viewBox="0 0 110 110" fill="none" xmlns="http://www.w3.org/2000/svg">
<path fill-rule="evenodd" clip-rule="evenodd" d="M54.9993 38.6962C36.5456 38.6962 21.5314 53.7118 21.5314 72.1641C21.5314 74.16 19.9147 75.7767 17.9188 75.7767C15.9257 75.7767 14.3075 74.16 14.3075 72.1641C14.3075 49.7267 32.5619 31.4723 54.9993 31.4723C59.8237 31.4723 64.5468 32.3101 69.0366 33.9597C70.9092 34.6481 71.8678 36.7226 71.1818 38.5952C70.4935 40.4678 68.4163 41.4275 66.5438 40.7391C62.8566 39.3845 58.9712 38.6962 54.9993 38.6962ZM54.9993 22.7234C27.7389 22.7234 5.55972 44.9051 5.55972 72.1641C5.55972 76.0994 6.024 80.0162 6.94052 83.8058C7.44132 85.8829 9.21443 87.2769 11.3491 87.2769H98.6519C100.787 87.2769 102.56 85.8829 103.061 83.8058C103.977 80.0162 104.44 76.0994 104.44 72.1641C104.44 44.9051 82.2611 22.7234 54.9993 22.7234ZM44.8121 72.1641C44.8121 77.7842 49.3831 82.3529 54.9996 82.3529C62.4383 82.3529 67.3043 74.6359 64.2875 67.9862L83.7745 48.498C85.1855 47.0897 85.1855 44.8029 83.7745 43.3918C82.3636 41.9807 80.0766 41.9807 78.6657 43.3918L59.18 62.8775C52.4812 59.8516 44.8121 64.7629 44.8121 72.1641Z" fill="#2B90C0"/>
</svg>
