<svg width="103" height="103" viewBox="0 0 103 103" fill="none" xmlns="http://www.w3.org/2000/svg">
<g clip-path="url(#clip0_321_1538)">
<path d="M0 7.80122C0 6.70376 0.889672 5.81409 1.98714 5.81409H4.05131C5.14878 5.81409 6.03845 6.70376 6.03845 7.80123V9.8654C6.03845 10.9629 5.14878 11.8525 4.05131 11.8525H1.98714C0.889671 11.8525 0 10.9629 0 9.8654V7.80122ZM12.0769 7.80122C12.0769 6.70376 12.9666 5.81409 14.064 5.81409H16.1282C17.2257 5.81409 18.1153 6.70376 18.1153 7.80123V9.8654C18.1153 10.9629 17.2257 11.8525 16.1282 11.8525H14.064C12.9666 11.8525 12.0769 10.9629 12.0769 9.8654V7.80122ZM24.1538 7.80122C24.1538 6.70376 25.0435 5.81409 26.1409 5.81409H28.2051C29.3026 5.81409 30.1922 6.70376 30.1922 7.80123V9.8654C30.1922 10.9629 29.3026 11.8525 28.2051 11.8525H26.1409C25.0435 11.8525 24.1538 10.9629 24.1538 9.8654V7.80122ZM36.2307 7.80122C36.2307 6.70376 37.1204 5.81409 38.2178 5.81409H80.7396C81.8371 5.81409 82.7267 6.70376 82.7267 7.80123V9.8654C82.7267 10.9629 81.8371 11.8525 80.7396 11.8525H38.2178C37.1203 11.8525 36.2307 10.9629 36.2307 9.8654V7.80122ZM30.6149 58.2238C26.8208 54.589 26.9101 48.0087 30.8063 44.4803C34.5399 40.9458 40.5784 41.0726 44.2699 44.7621L50.1799 50.6721C50.5134 51.0056 51.0821 50.8938 51.3111 50.4814C52.8031 47.7955 55.6777 45.888 58.7537 45.611C59.1098 45.579 59.3964 45.2926 59.4271 44.9364C59.9345 39.0541 65.9883 34.9991 71.5853 36.6414C71.9556 36.7501 72.3552 36.5521 72.4944 36.1921C73.9593 32.4014 77.963 29.9342 81.9553 30.21C82.3618 30.2381 82.7267 29.9289 82.7267 29.5215V19.8781C82.7267 18.7807 81.8371 17.891 80.7396 17.891H1.98714C0.88967 17.891 0 18.7807 0 19.8781V79.2975C0 80.3949 0.889672 81.2846 1.98714 81.2846H52.0766C52.6668 81.2846 52.9623 80.5711 52.545 80.1539L30.6149 58.2238ZM37.221 26.4339C37.221 25.3364 38.1107 24.4467 39.2081 24.4467H41.2723C42.3698 24.4467 43.2594 25.3364 43.2594 26.4339V32.9685C43.2594 34.066 42.3698 34.9556 41.2723 34.9556H39.2081C38.1107 34.9556 37.221 34.066 37.221 32.9685V26.4339ZM20.9756 54.3768C20.9756 55.4743 20.0859 56.3639 18.9884 56.3639H12.4538C11.3563 56.3639 10.4666 55.4743 10.4666 54.3768V52.3126C10.4666 51.2152 11.3563 50.3255 12.4538 50.3255H18.9884C20.0859 50.3255 20.9756 51.2152 20.9756 52.3126V54.3768ZM25.0621 40.3099C24.2859 41.0866 23.0269 41.0868 22.2506 40.3103L16.9618 35.0202C16.186 34.2442 16.186 32.9861 16.962 32.2102L18.4211 30.751C19.1971 29.975 20.4553 29.975 21.2314 30.751L26.5204 36.0401C27.2966 36.8162 27.2965 38.0746 26.5205 38.8508C26.0447 39.3268 25.5379 39.8338 25.0621 40.3099Z" fill="#2B90C0"/>
<path d="M94.6004 47.9062C91.7285 45.044 86.8442 40.1432 84.021 37.3269C82.6918 35.967 80.374 35.8217 78.9789 37.1578C77.5374 38.4669 77.4995 40.9 78.9065 42.2482C79.4558 42.8003 83.0344 46.3741 83.4917 46.8334C82.3113 48.0143 80.4173 49.9104 79.2225 51.1026L71.4832 43.3633C70.1624 41.9875 67.7841 41.9873 66.4632 43.3633C65.0804 44.7461 65.0804 46.9984 66.4632 48.3812L74.2045 56.1225C73.1396 57.1857 70.9981 59.3269 69.9354 60.3917H69.9333L62.1941 52.6504C61.8654 52.3201 61.4746 52.0583 61.0441 51.88C60.6136 51.7017 60.152 51.6106 59.6861 51.6118C56.5558 51.5973 54.9584 55.4408 57.164 57.6583L64.9154 65.4097C63.8522 66.4746 61.711 68.6161 60.6462 69.6788C55.9523 64.9846 44.8033 53.8364 40.0008 49.0334C37.7448 46.7734 33.8892 48.2132 33.8456 51.3964C33.8335 52.3626 34.2018 53.2704 34.8842 53.9547C40.1264 59.1973 64.419 83.4866 69.1745 88.243H51.82C49.3543 88.243 47.3495 90.2498 47.3495 92.7155C47.3495 95.1792 49.3543 97.186 51.82 97.186H74.1884C81.8995 97.186 89.1497 94.1829 94.6004 88.7302C105.799 77.9878 105.801 58.6498 94.6004 47.9062Z" fill="#2B90C0"/>
</g>
<defs>
<clipPath id="clip0_321_1538">
<rect width="103" height="103" fill="white"/>
</clipPath>
</defs>
</svg>
