<svg width="108" height="108" viewBox="0 0 108 108" fill="none" xmlns="http://www.w3.org/2000/svg">
<path d="M49.374 44.406C49.2702 44.0858 49.0785 43.8012 48.8206 43.5848C48.5628 43.3683 48.2493 43.2288 47.916 43.182L44.766 42.732L43.362 39.87C42.75 38.646 40.734 38.646 40.14 39.87L38.736 42.732L35.586 43.182C34.902 43.272 34.344 43.758 34.128 44.406C33.93 45.054 34.092 45.774 34.596 46.26L36.864 48.474L36.324 51.606C36.216 52.272 36.486 52.956 37.044 53.352C37.35 53.586 37.728 53.712 38.106 53.712C38.394 53.712 38.682 53.64 38.934 53.496L41.742 52.02L44.568 53.496C45.162 53.82 45.9 53.766 46.458 53.352C47.016 52.956 47.286 52.272 47.178 51.606L46.638 48.474L48.906 46.26C49.41 45.774 49.572 45.054 49.374 44.406ZM74.412 30.006C74.3094 29.6883 74.1203 29.4055 73.866 29.1893C73.6116 28.9731 73.302 28.8321 72.972 28.782L69.822 28.332L68.418 25.47C67.806 24.246 65.79 24.246 65.178 25.47L63.774 28.332L60.642 28.782C59.958 28.872 59.4 29.358 59.184 30.006C58.968 30.654 59.148 31.374 59.634 31.86L61.92 34.074L61.38 37.206C61.254 37.872 61.542 38.556 62.1 38.952C62.64 39.366 63.378 39.42 63.99 39.096L66.798 37.62L69.606 39.096C69.876 39.24 70.164 39.312 70.452 39.312C70.8353 39.3082 71.2073 39.182 71.514 38.952C72.054 38.556 72.342 37.872 72.216 37.206L71.694 34.074L73.962 31.86C74.448 31.374 74.628 30.654 74.412 30.006ZM98.352 14.49C98.2482 14.1698 98.0565 13.8852 97.7987 13.6688C97.5408 13.4523 97.2273 13.3128 96.894 13.266L93.762 12.798L92.358 9.95401C91.746 8.73001 89.73 8.73001 89.118 9.95401L87.714 12.798L84.564 13.266C83.898 13.356 83.322 13.842 83.124 14.49C82.908 15.138 83.088 15.858 83.574 16.326L85.842 18.54L85.32 21.672C85.194 22.356 85.482 23.04 86.022 23.436C86.58 23.85 87.318 23.904 87.93 23.58L90.738 22.104L93.546 23.58C93.816 23.724 94.104 23.778 94.392 23.778C94.752 23.778 95.13 23.67 95.436 23.436C95.994 23.04 96.282 22.356 96.156 21.672L95.616 18.54L97.902 16.326C98.388 15.876 98.568 15.138 98.352 14.49ZM24.318 58.806C24.2142 58.4858 24.0225 58.2012 23.7646 57.9848C23.5068 57.7683 23.1933 57.6288 22.86 57.582L19.728 57.132L18.324 54.27C18.018 53.658 17.388 53.28 16.704 53.28C16.02 53.28 15.39 53.658 15.084 54.27L13.68 57.132L10.53 57.582C9.86397 57.672 9.30597 58.158 9.08997 58.806C8.87397 59.454 9.05397 60.174 9.53997 60.66L11.808 62.874L11.286 66.006C11.16 66.672 11.448 67.356 11.988 67.752C12.2946 67.982 12.6667 68.1082 13.05 68.112C13.338 68.112 13.626 68.04 13.896 67.896L16.704 66.42L19.512 67.896C20.124 68.22 20.862 68.166 21.402 67.752C21.96 67.356 22.248 66.672 22.122 66.006L21.582 62.874L23.868 60.66C24.354 60.174 24.534 59.454 24.318 58.806ZM33.498 66.312V97.146C33.498 98.154 34.29 98.946 35.298 98.946H48.204C49.212 98.946 50.004 98.154 50.004 97.146V66.312C50.004 65.304 49.212 64.512 48.204 64.512H35.298C34.29 64.512 33.498 65.304 33.498 66.312ZM25.524 97.146V79.632C25.524 78.642 24.714 77.832 23.724 77.832H10.8C9.80997 77.832 8.99997 78.642 8.99997 79.632V97.146C8.99997 98.154 9.80997 98.946 10.8 98.946H23.724C24.714 98.946 25.524 98.154 25.524 97.146ZM57.978 53.946V97.146C57.978 98.154 58.788 98.946 59.778 98.946H72.702C73.692 98.946 74.502 98.154 74.502 97.146V53.946C74.502 52.956 73.692 52.146 72.702 52.146H59.778C58.788 52.146 57.978 52.956 57.978 53.946ZM97.2 31.41H84.276C83.286 31.41 82.476 32.22 82.476 33.21V97.146C82.476 98.154 83.286 98.946 84.276 98.946H97.2C98.19 98.946 99 98.154 99 97.146V33.21C99 32.22 98.19 31.41 97.2 31.41Z" fill="#2B90C0"/>
</svg>
