<svg width="97" height="97" viewBox="0 0 97 97" fill="none" xmlns="http://www.w3.org/2000/svg">
<path fill-rule="evenodd" clip-rule="evenodd" d="M91.9479 48.5C91.9479 46.0588 90.404 43.7591 88.0962 41.7383C86.9201 40.7036 85.5621 39.7134 84.4102 38.699C83.7272 38.0968 83.0603 37.5633 82.8542 36.8964C82.6319 36.1689 82.8542 35.2676 83.0765 34.3016C83.4281 32.7658 83.9616 31.133 84.3334 29.5931C85.065 26.5538 85.0043 23.7812 83.6868 21.8856C82.3166 19.9133 79.738 18.9756 76.6583 18.7574C75.1427 18.6523 73.4937 18.6806 71.9902 18.5593C71.1253 18.4906 70.3088 18.4704 69.7753 18.0622L69.7713 18.0582C69.2176 17.6378 68.9427 16.8053 68.5992 15.9242C68.0293 14.4651 67.5484 12.8081 66.9785 11.3248C65.8509 8.36222 64.1776 6.11102 61.9709 5.35927C59.7843 4.6156 57.1451 5.41585 54.518 7.15781C53.2409 8.00252 51.9314 9.03718 50.6421 9.85764C49.8822 10.3426 49.1911 10.8317 48.5 10.8317C47.8089 10.8317 47.1177 10.3426 46.3579 9.85764C45.0686 9.03718 43.7591 8.00252 42.482 7.15781C39.8549 5.41585 37.2157 4.6156 35.0291 5.35927C32.8224 6.11102 31.1491 8.36222 30.0215 11.3248C29.4516 12.8081 28.9707 14.4651 28.4008 15.9242C28.0572 16.8053 27.7824 17.6378 27.2287 18.0582L27.2247 18.0622C26.6912 18.4704 25.8747 18.4906 25.0098 18.5593C23.5063 18.6806 21.8614 18.6523 20.3417 18.7574C17.262 18.9716 14.6834 19.9093 13.3132 21.8816C11.9957 23.7771 11.935 26.5538 12.6666 29.5931C13.0384 31.133 13.5719 32.7658 13.9235 34.3016C14.1458 35.2676 14.3681 36.1689 14.1458 36.8964C13.9397 37.5633 13.2728 38.0968 12.5898 38.699C11.4379 39.7134 10.0799 40.7036 8.90379 41.7383C6.596 43.7591 5.05208 46.0588 5.05208 48.5C5.05208 50.9412 6.596 53.2409 8.90379 55.2617C10.0799 56.2923 11.4379 57.2866 12.5898 58.3011C13.2728 58.9033 13.9397 59.4368 14.1458 60.1036C14.3681 60.8311 14.1458 61.7324 13.9235 62.6984C13.5719 64.2342 13.0384 65.8671 12.6666 67.4069C11.935 70.4463 11.9957 73.2188 13.3132 75.1144C14.6834 77.0867 17.262 78.0244 20.3417 78.2426C21.8573 78.3477 23.5063 78.3194 25.0098 78.4407C25.8747 78.5094 26.6912 78.5296 27.2247 78.9378L27.2287 78.9418C27.7824 79.3622 28.0572 80.1948 28.4008 81.0758C28.9707 82.5349 29.4516 84.192 30.0215 85.6753C31.1491 88.6338 32.8224 90.889 35.0291 91.6408C37.2157 92.3844 39.8549 91.5842 42.482 89.8422C43.7591 88.9975 45.0686 87.9628 46.3579 87.1424C47.1177 86.6574 47.8089 86.1683 48.5 86.1683C49.1911 86.1683 49.8822 86.6574 50.6421 87.1424C51.9314 87.9628 53.2409 88.9975 54.518 89.8422C57.1451 91.5842 59.7843 92.3844 61.9709 91.6408C64.1776 90.889 65.8509 88.6338 66.9785 85.6753C67.5484 84.192 68.0293 82.5349 68.5992 81.0758C68.9427 80.1948 69.2176 79.3622 69.7713 78.9418L69.7753 78.9378C70.3088 78.5296 71.1253 78.5094 71.9902 78.4407C73.4937 78.3194 75.1386 78.3477 76.6583 78.2426C79.738 78.0284 82.3166 77.0908 83.6868 75.1184C85.0043 73.2188 85.065 70.4463 84.3334 67.4069C83.9616 65.8671 83.4281 64.2342 83.0765 62.6984C82.8542 61.7324 82.6319 60.8311 82.8542 60.1036C83.0603 59.4368 83.7272 58.9033 84.4102 58.3011C85.5621 57.2866 86.9201 56.2923 88.0962 55.2617C90.404 53.2409 91.9479 50.9412 91.9479 48.5ZM34.2329 50.6421L42.3162 58.7254C42.5974 59.007 42.9313 59.2304 43.2989 59.3828C43.6664 59.5352 44.0604 59.6136 44.4583 59.6136C44.8562 59.6136 45.2502 59.5352 45.6178 59.3828C45.9854 59.2304 46.3193 59.007 46.6004 58.7254L62.7671 42.5588C63.0484 42.2775 63.2715 41.9435 63.4238 41.576C63.576 41.2084 63.6544 40.8145 63.6544 40.4167C63.6544 40.0189 63.576 39.6249 63.4238 39.2574C63.2715 38.8899 63.0484 38.5559 62.7671 38.2746C62.4858 37.9933 62.1518 37.7702 61.7843 37.6179C61.4167 37.4657 61.0228 37.3873 60.625 37.3873C60.2272 37.3873 59.8333 37.4657 59.4657 37.6179C59.0982 37.7702 58.7642 37.9933 58.4829 38.2746L44.4583 52.2951L38.5171 46.3579C38.2358 46.0766 37.9018 45.8535 37.5343 45.7012C37.1667 45.549 36.7728 45.4706 36.375 45.4706C35.9772 45.4706 35.5833 45.549 35.2157 45.7012C34.8482 45.8535 34.5142 46.0766 34.2329 46.3579C33.9516 46.6392 33.7285 46.9732 33.5762 47.3407C33.424 47.7083 33.3456 48.1022 33.3456 48.5C33.3456 48.8978 33.424 49.2918 33.5762 49.6593C33.7285 50.0268 33.9516 50.3608 34.2329 50.6421Z" fill="#2B90C0"/>
</svg>
