<svg width="58" height="74" viewBox="0 0 58 74" fill="none" xmlns="http://www.w3.org/2000/svg">
<path d="M37.7206 60.0917C37.1476 60.3611 36.51 60.5091 35.8383 60.5091H4.62929C2.16263 60.5091 0.158936 58.5092 0.158936 56.0388C0.158936 50.9233 2.23473 46.2935 5.5856 42.9389C8.93647 39.5842 13.57 37.5122 18.6855 37.5122H21.7821C23.6492 37.5122 25.4556 37.7892 27.1557 38.3015L27.1405 38.3281C26.6092 39.2503 26.4688 40.3242 26.742 41.3526C27.019 42.381 27.6793 43.2425 28.6015 43.7737L29.0265 44.0204C28.9772 44.5137 28.9506 45.0109 28.9506 45.508C28.9506 46.0051 28.9772 46.5023 29.0265 46.9956L28.6015 47.2423C27.6793 47.7735 27.019 48.635 26.742 49.6634C26.4688 50.6918 26.6092 51.7657 27.1405 52.6879L29.2239 56.293C29.9335 57.5226 31.2579 58.2891 32.6772 58.2891C33.3755 58.2891 34.0623 58.1032 34.6695 57.7541L35.0945 57.5074C35.9028 58.088 36.7681 58.5889 37.675 58.995V59.4883C37.675 59.6932 37.6902 59.8944 37.7206 60.0917Z" fill="#2B90C0"/>
<path d="M20.2338 33.5656C25.7773 33.5656 30.2712 29.0717 30.2712 23.5282C30.2712 17.9846 25.7773 13.4907 20.2338 13.4907C14.6903 13.4907 10.1964 17.9846 10.1964 23.5282C10.1964 29.0717 14.6903 33.5656 20.2338 33.5656Z" fill="#2B90C0"/>
<path d="M57.3666 49.8722L55.0935 48.5592C55.3553 47.5839 55.4958 46.5631 55.4958 45.5081C55.4958 44.4532 55.3553 43.4285 55.0935 42.457L57.3666 41.144C57.822 40.8822 57.9776 40.3016 57.7158 39.8462L55.6324 36.241C55.5701 36.1329 55.4872 36.038 55.3882 35.9619C55.2893 35.8858 55.1763 35.8299 55.0558 35.7975C54.9353 35.7651 54.8095 35.7567 54.6858 35.7729C54.562 35.7891 54.4426 35.8296 54.3345 35.8919L52.0614 37.2049C50.6193 35.7629 48.8054 34.6927 46.7751 34.1501V31.5278C46.7751 31.2762 46.6752 31.0349 46.4973 30.857C46.3193 30.6791 46.078 30.5791 45.8264 30.5791H41.6634C41.4118 30.5791 41.1705 30.6791 40.9926 30.857C40.8147 31.0349 40.7147 31.2762 40.7147 31.5278V34.1501C38.7135 34.6831 36.8895 35.7372 35.4285 37.2049L33.1553 35.8919C32.7 35.6301 32.1193 35.7857 31.8575 36.241L29.7741 39.8462C29.5123 40.3016 29.6679 40.8822 30.1232 41.144L32.3964 42.457C32.1345 43.4323 31.9941 44.4532 31.9941 45.5081C31.9941 46.5631 32.1345 47.5877 32.3964 48.5592L30.1232 49.8722C29.6679 50.1341 29.5123 50.7147 29.7741 51.1701L31.8575 54.7752C32.1193 55.2306 32.7 55.3862 33.1553 55.1243L35.4285 53.8113C36.8705 55.2534 38.6845 56.3235 40.7147 56.8662V59.4884C40.7147 59.74 40.8147 59.9814 40.9926 60.1593C41.1705 60.3372 41.4118 60.4372 41.6634 60.4372H45.8264C46.078 60.4372 46.3193 60.3372 46.4973 60.1593C46.6752 59.9814 46.7751 59.74 46.7751 59.4884V56.8662C48.7763 56.3332 50.6004 55.2791 52.0614 53.8113L54.3345 55.1243C54.7899 55.3862 55.3705 55.2306 55.6324 54.7752L57.7158 51.1701C57.9776 50.7147 57.822 50.1341 57.3666 49.8722ZM43.743 50.3011C41.0942 50.3011 38.9501 48.1532 38.9501 45.5081C38.9501 42.8593 41.098 40.7152 43.743 40.7152C46.3881 40.7152 48.536 42.8631 48.536 45.5081C48.536 48.1532 46.3919 50.3011 43.743 50.3011Z" fill="#2B90C0"/>
</svg>
