<svg width="49" height="59" viewBox="0 0 49 59" fill="none" xmlns="http://www.w3.org/2000/svg">
<g clip-path="url(#clip0_321_1777)">
<path d="M38.8668 25.8115C33.2758 25.8115 28.7266 30.3608 28.7266 35.9518C28.7266 41.5428 33.2758 46.092 38.8668 46.092C44.4578 46.092 49.007 41.5428 49.007 35.9518C49.007 30.3608 44.4578 25.8115 38.8668 25.8115ZM43.166 34.3247C40.2183 38.7469 41.0542 37.4932 39.4787 39.8558C38.9128 40.7046 37.767 40.9297 36.9217 40.3662L34.1562 38.5226C33.3092 37.9579 33.0811 36.8137 33.6457 35.9656C34.2104 35.1187 35.3546 34.8905 36.2027 35.4551L37.4333 36.2756C40.3738 31.8656 40.2157 31.9876 40.7105 31.7056C42.3897 30.7342 44.2452 32.7039 43.166 34.3247ZM30.5702 47.007V57.1541C30.5702 58.5667 32.1003 59.457 33.3288 58.7547L38.8668 55.5904L44.4048 58.7547C45.6284 59.456 47.1634 58.5706 47.1634 57.1541V47.007C42.2513 50.7026 35.4893 50.7079 30.5702 47.007ZM42.5542 22.6243V4.00425C42.5542 1.79644 40.7577 0 38.5499 0H5.99741C3.7896 0 1.99316 1.79644 1.99316 4.00425V46.697C1.99316 48.9048 3.7896 50.7012 5.99741 50.7012H26.8829C26.8829 42.7673 26.8705 43.2584 26.9117 42.8932C20.7397 32.312 30.5676 19.2955 42.5542 22.6243ZM13.0553 9.21841H28.7266C29.7452 9.21841 30.5702 10.0435 30.5702 11.0621C30.5702 12.0807 29.7452 12.9058 28.7266 12.9058H13.0553C12.0366 12.9058 11.2116 12.0807 11.2116 11.0621C11.2116 10.0435 12.0366 9.21841 13.0553 9.21841ZM22.2737 27.6552H13.0553C12.0366 27.6552 11.2116 26.8302 11.2116 25.8115C11.2116 24.7929 12.0366 23.9679 13.0553 23.9679H22.2737C23.2923 23.9679 24.1173 24.7929 24.1173 25.8115C24.1173 26.8302 23.2923 27.6552 22.2737 27.6552ZM13.0553 20.2805C12.0366 20.2805 11.2116 19.4554 11.2116 18.4368C11.2116 17.4182 12.0366 16.5931 13.0553 16.5931H28.7266C29.7452 16.5931 30.5702 17.4182 30.5702 18.4368C30.5702 19.4554 29.7452 20.2805 28.7266 20.2805H13.0553Z" fill="#2B90C0"/>
</g>
<defs>
<clipPath id="clip0_321_1777">
<rect width="49" height="59" fill="white"/>
</clipPath>
</defs>
</svg>
