<svg width="42" height="54" viewBox="0 0 42 54" fill="none" xmlns="http://www.w3.org/2000/svg">
<g clip-path="url(#clip0_321_1761)">
<path d="M27.3281 3.16406H25.4758C24.8222 1.32247 23.0625 0 21 0C18.9375 0 17.1778 1.32247 16.5242 3.16406H14.6719C12.0548 3.16406 9.92578 5.29305 9.92578 7.91016C9.92578 8.7846 10.6334 9.49219 11.5078 9.49219H30.4922C31.3666 9.49219 32.0742 8.7846 32.0742 7.91016C32.0742 5.29305 29.9452 3.16406 27.3281 3.16406Z" fill="#2B90C0"/>
<path d="M36.8203 6.32812H35.0782C35.1846 6.84875 35.2382 7.37877 35.2383 7.91016C35.2383 10.5273 33.1093 12.6562 30.4922 12.6562H11.5078C8.89071 12.6562 6.76172 10.5273 6.76172 7.91016C6.76172 7.36847 6.81751 6.83954 6.92182 6.32812H5.17969C2.56259 6.32812 0.433594 8.45712 0.433594 11.0742V49.2539C0.433594 51.871 2.56259 54 5.17969 54H36.8203C39.4374 54 41.5664 51.871 41.5664 49.2539V11.0742C41.5664 8.45712 39.4374 6.32812 36.8203 6.32812ZM16.2539 44.2969H9.92578C9.05134 44.2969 8.34375 43.5893 8.34375 42.7148C8.34375 41.8404 9.05134 41.1328 9.92578 41.1328H16.2539C17.1283 41.1328 17.8359 41.8404 17.8359 42.7148C17.8359 43.5893 17.1283 44.2969 16.2539 44.2969ZM16.2539 33.2227H9.92578C9.05134 33.2227 8.34375 32.5151 8.34375 31.6406C8.34375 30.7662 9.05134 30.0586 9.92578 30.0586H16.2539C17.1283 30.0586 17.8359 30.7662 17.8359 31.6406C17.8359 32.5151 17.1283 33.2227 16.2539 33.2227ZM16.2539 22.1484H9.92578C9.05134 22.1484 8.34375 21.4408 8.34375 20.5664C8.34375 19.692 9.05134 18.9844 9.92578 18.9844H16.2539C17.1283 18.9844 17.8359 19.692 17.8359 20.5664C17.8359 21.4408 17.1283 22.1484 16.2539 22.1484ZM31.6107 44.7604C32.2286 45.3783 32.2286 46.3796 31.6107 46.9975C31.464 47.1446 31.2896 47.2613 31.0977 47.3409C30.9057 47.4204 30.7 47.4613 30.4922 47.461C30.2844 47.4613 30.0786 47.4205 29.8867 47.3409C29.6947 47.2614 29.5204 47.1447 29.3737 46.9975L27.3281 44.9519L25.2826 46.9975C25.1359 47.1446 24.9615 47.2613 24.7696 47.3409C24.5776 47.4204 24.3718 47.4613 24.1641 47.461C23.9563 47.4613 23.7505 47.4205 23.5585 47.3409C23.3666 47.2614 23.1923 47.1447 23.0456 46.9975C22.4276 46.3796 22.4276 45.3783 23.0456 44.7604L25.091 42.7148L23.0455 40.6693C22.4275 40.0513 22.4275 39.0501 23.0455 38.4322C23.6634 37.8142 24.6646 37.8142 25.2826 38.4322L27.3281 40.4777L29.3737 38.4322C29.9916 37.8142 30.9928 37.8142 31.6108 38.4322C32.2287 39.0501 32.2287 40.0513 31.6108 40.6693L29.5652 42.7148L31.6107 44.7604ZM33.1927 29.5951L28.4466 34.3412C28.2999 34.4883 28.1256 34.605 27.9336 34.6845C27.7417 34.7641 27.5359 34.8049 27.3281 34.8047C27.1203 34.8049 26.9146 34.7641 26.7226 34.6846C26.5307 34.605 26.3563 34.4883 26.2096 34.3412L23.0456 31.1771C22.4276 30.5591 22.4276 29.5579 23.0456 28.94C23.6635 28.3221 24.6647 28.3221 25.2827 28.94L27.3281 30.9856L30.9557 27.358C31.5737 26.74 32.5749 26.74 33.1928 27.358C33.8108 27.9759 33.8108 28.9771 33.1927 29.5951ZM33.1927 20.1029L28.4466 24.849C28.2999 24.9961 28.1256 25.1128 27.9336 25.1924C27.7417 25.2719 27.5359 25.3127 27.3281 25.3125C27.1203 25.3127 26.9146 25.2719 26.7226 25.1924C26.5307 25.1128 26.3563 24.9961 26.2096 24.849L23.0456 21.6849C22.4276 21.067 22.4276 20.0657 23.0456 19.4478C23.6635 18.8299 24.6647 18.8299 25.2827 19.4478L27.3281 21.4934L30.9557 17.8658C31.5737 17.2478 32.5749 17.2478 33.1928 17.8658C33.8108 18.4837 33.8108 19.4849 33.1927 20.1029Z" fill="#2B90C0"/>
</g>
<defs>
<clipPath id="clip0_321_1761">
<rect width="42" height="54" fill="white"/>
</clipPath>
</defs>
</svg>
