<svg width="53" height="54" viewBox="0 0 53 54" fill="none" xmlns="http://www.w3.org/2000/svg">
<g clip-path="url(#clip0_321_1769)">
<path d="M38.3213 28.8984C31.265 28.8984 25.5244 34.5287 25.5244 41.4492C25.5244 48.3698 31.265 54 38.3213 54C45.4368 54 51.2257 48.3698 51.2257 41.4492C51.2257 34.5287 45.4368 28.8984 38.3213 28.8984ZM42.2489 39.9308L37.9474 44.9933C37.7758 45.1951 37.5557 45.3518 37.3068 45.4493C37.058 45.5468 36.7884 45.582 36.5222 45.5517C36.2561 45.5214 36.0018 45.4266 35.7824 45.2758C35.563 45.125 35.3853 44.923 35.2654 44.688L33.5448 41.313C33.1464 40.5315 33.4694 39.5812 34.2662 39.1905C35.0629 38.7995 36.0319 39.1165 36.4304 39.898L37.0479 41.1094L39.7705 37.9052C40.3408 37.2341 41.358 37.1435 42.0423 37.7025C42.7267 38.262 42.8192 39.2595 42.2489 39.9308Z" fill="#2B90C0"/>
<path d="M37.626 9.01262L31.0811 2.37452L31.0717 2.36493C29.5648 0.861996 27.4679 0 25.319 0H4.55473C1.88642 0 -0.284424 2.1291 -0.284424 4.74609V45.7734C-0.284424 48.3904 1.88642 50.5195 4.55473 50.5195H25.2437C23.3895 47.9554 22.2983 44.8251 22.2983 41.4492C22.2983 32.784 29.4862 25.7344 38.3213 25.7344C38.8656 25.7344 39.4036 25.7612 39.9343 25.8127V14.5526C39.9343 12.4676 39.1146 10.5005 37.626 9.01262ZM16.8139 35.332H8.21098C7.32015 35.332 6.59793 34.6237 6.59793 33.75C6.59793 32.8763 7.32015 32.168 8.21098 32.168H16.8139C17.7048 32.168 18.427 32.8763 18.427 33.75C18.427 34.6237 17.7048 35.332 16.8139 35.332ZM16.8139 26.8945H8.21098C7.32015 26.8945 6.59793 26.1862 6.59793 25.3125C6.59793 24.4388 7.32015 23.7305 8.21098 23.7305H16.8139C17.7048 23.7305 18.427 24.4388 18.427 25.3125C18.427 26.1862 17.7048 26.8945 16.8139 26.8945ZM16.8139 18.457H8.21098C7.32015 18.457 6.59793 17.7487 6.59793 16.875C6.59793 16.0013 7.32015 15.293 8.21098 15.293H16.8139C17.7048 15.293 18.427 16.0013 18.427 16.875C18.427 17.7487 17.7048 18.457 16.8139 18.457ZM27.1375 26.8945H25.4169C24.526 26.8945 23.8038 26.1862 23.8038 25.3125C23.8038 24.4388 24.526 23.7305 25.4169 23.7305H27.1375C28.0283 23.7305 28.7505 24.4388 28.7505 25.3125C28.7505 26.1862 28.0283 26.8945 27.1375 26.8945ZM27.1375 18.457H25.4169C24.526 18.457 23.8038 17.7487 23.8038 16.875C23.8038 16.0013 24.526 15.293 25.4169 15.293H27.1375C28.0283 15.293 28.7505 16.0013 28.7505 16.875C28.7505 17.7487 28.0283 18.457 27.1375 18.457Z" fill="#2B90C0"/>
</g>
<defs>
<clipPath id="clip0_321_1769">
<rect width="53" height="54" fill="white"/>
</clipPath>
</defs>
</svg>
