<svg width="52" height="52" viewBox="0 0 52 52" fill="none" xmlns="http://www.w3.org/2000/svg">
<g clip-path="url(#clip0_321_1754)">
<path d="M24.9492 50.0565L26.4008 42.796C26.4635 42.4815 26.6181 42.1927 26.845 41.9662L42.8177 25.9935C43.5081 25.3055 44.443 24.9192 45.4177 24.9192C46.3923 24.9192 47.3273 25.3055 48.0177 25.9935L50.9232 28.899C51.6118 29.5895 51.9986 30.5249 51.9986 31.5001C51.9986 32.4753 51.6118 33.4107 50.9232 34.1012L34.9505 50.0738C34.7242 50.301 34.4353 50.4557 34.1207 50.518L26.8602 51.9697C26.5978 52.022 26.3266 52.0087 26.0706 51.931C25.8146 51.8534 25.5818 51.7137 25.3927 51.5244C25.2037 51.3352 25.0643 51.1022 24.9869 50.8461C24.9095 50.59 24.8966 50.3188 24.9492 50.0565ZM34.6667 8.66667H32.5V2.16667C32.5 0.975 31.525 0 30.3333 0H6.5C4.72333 0 3.07667 0.736667 1.90667 1.90667C0.736667 3.07667 0 4.70167 0 6.5V41.1667C0 44.7417 2.925 47.6667 6.5 47.6667H20.995L22.1433 41.9467C22.3817 40.7767 22.9667 39.715 23.79 38.8917L36.8333 25.8483V10.8333C36.8333 9.64167 35.8583 8.66667 34.6667 8.66667ZM28.1667 8.66667H6.5C5.30833 8.66667 4.33333 7.69167 4.33333 6.5C4.33333 5.30833 5.30833 4.33333 6.5 4.33333H28.1667V8.66667Z" fill="#2B90C0"/>
</g>
<defs>
<clipPath id="clip0_321_1754">
<rect width="52" height="52" fill="white"/>
</clipPath>
</defs>
</svg>
