<svg width="42" height="42" viewBox="0 0 42 42" fill="none" xmlns="http://www.w3.org/2000/svg">
<path fill-rule="evenodd" clip-rule="evenodd" d="M10.9375 39.8125H8.75C7.5425 39.8125 6.5625 38.8325 6.5625 37.625V31.5C6.56294 30.0431 7.0479 28.6278 7.941 27.4768C8.83411 26.3258 10.0847 25.5045 11.4957 25.1423L13.1933 31.9375H13.125C11.9175 31.9375 10.9375 32.9175 10.9375 34.125V39.8125ZM14.1505 24.9375H17.5C17.8481 24.9375 18.1819 25.0758 18.4281 25.3219C18.6742 25.5681 18.8125 25.9019 18.8125 26.25C18.8125 26.8302 19.043 27.3866 19.4532 27.7968C19.8634 28.207 20.4198 28.4375 21 28.4375C21.5802 28.4375 22.1366 28.207 22.5468 27.7968C22.957 27.3866 23.1875 26.8302 23.1875 26.25C23.1875 25.9019 23.3258 25.5681 23.5719 25.3219C23.8181 25.0758 24.1519 24.9375 24.5 24.9375H27.8495L26.0995 31.9375H15.9005L14.1505 24.9375ZM30.5042 25.1423C31.9156 25.504 33.1665 26.3251 34.0597 27.4762C34.9529 28.6274 35.4377 30.043 35.4375 31.5V37.625C35.4375 38.8325 34.4575 39.8125 33.25 39.8125H31.0625V34.125C31.0625 32.9175 30.0825 31.9375 28.875 31.9375H28.8068L30.5042 25.1423ZM28.4375 39.8125H13.5625V34.5625H28.4375V39.8125ZM17.0625 7.875V3.5C17.0625 3.1519 17.2008 2.81806 17.4469 2.57192C17.6931 2.32578 18.0269 2.1875 18.375 2.1875H23.625C23.9731 2.1875 24.3069 2.32578 24.5531 2.57192C24.7992 2.81806 24.9375 3.1519 24.9375 3.5V7.875C24.9375 8.2231 24.7992 8.55694 24.5531 8.80308C24.3069 9.04922 23.9731 9.1875 23.625 9.1875H18.375C18.0269 9.1875 17.6931 9.04922 17.4469 8.80308C17.2008 8.55694 17.0625 8.2231 17.0625 7.875ZM29.75 10.9375C30.0981 10.9375 30.4319 11.0758 30.6781 11.3219C30.9242 11.5681 31.0625 11.9019 31.0625 12.25C31.0625 12.5981 30.9242 12.9319 30.6781 13.1781C30.4319 13.4242 30.0981 13.5625 29.75 13.5625H12.25C11.9019 13.5625 11.5681 13.4242 11.3219 13.1781C11.0758 12.9319 10.9375 12.5981 10.9375 12.25C10.9375 11.9019 11.0758 11.5681 11.3219 11.3219C11.5681 11.0758 11.9019 10.9375 12.25 10.9375H29.75Z" fill="#FC9012"/>
<path fill-rule="evenodd" clip-rule="evenodd" d="M29.3125 15.75V16.625C29.3125 18.8296 28.4367 20.9439 26.8778 22.5028C25.3189 24.0617 23.2046 24.9375 21 24.9375C18.7954 24.9375 16.6811 24.0617 15.1222 22.5028C13.5633 20.9439 12.6875 18.8296 12.6875 16.625V15.75H29.3125ZM27.125 5.13974C27.8061 5.67151 28.3571 6.3515 28.7362 7.12807C29.1152 7.90463 29.3123 8.75736 29.3125 9.62149V12.25C29.3125 12.5981 29.1742 12.9319 28.9281 13.1781C28.6819 13.4242 28.3481 13.5625 28 13.5625H14C13.6519 13.5625 13.3181 13.4242 13.0719 13.1781C12.8258 12.9319 12.6875 12.5981 12.6875 12.25V9.62149C12.6877 8.75736 12.8848 7.90463 13.2638 7.12807C13.6429 6.3515 14.1939 5.67151 14.875 5.13974V7.87499C14.875 8.80325 15.2437 9.69349 15.9001 10.3499C16.5565 11.0062 17.4467 11.375 18.375 11.375H23.625C24.5533 11.375 25.4435 11.0062 26.0999 10.3499C26.7563 9.69349 27.125 8.80325 27.125 7.87499V5.13974Z" fill="#FC9012"/>
</svg>
