<svg width="38" height="38" viewBox="0 0 38 38" fill="none" xmlns="http://www.w3.org/2000/svg">
<g clip-path="url(#clip0_321_993)">
<path d="M22.0284 23.3125C28.4047 23.3125 33.5923 18.0835 33.5923 11.6563C33.5923 5.22908 28.4047 0 22.0284 0C15.6521 0 10.4645 5.22901 10.4645 11.6562C10.4645 18.0835 15.6521 23.3125 22.0284 23.3125ZM18.3125 15.2936C18.6489 14.7794 19.3385 14.6351 19.8527 14.9716C20.602 15.4617 20.8846 15.5069 21.8733 15.5C22.8383 15.4936 23.3982 14.7743 23.5101 14.1087C23.5645 13.7849 23.5854 12.9943 22.6055 12.6479C21.4562 12.2415 20.28 11.7771 19.4617 11.1353C18.6434 10.4935 18.2686 9.38546 18.4838 8.24384C18.7171 7.00623 19.5804 6.02105 20.7369 5.67272C20.7474 5.66961 20.7576 5.66709 20.7681 5.66397V5.24221C20.7681 4.62775 21.2662 4.12959 21.8807 4.12959C22.4952 4.12959 22.9933 4.62775 22.9933 5.24221V5.59387C23.749 5.77427 24.2768 6.12 24.4911 6.28014C24.9832 6.64812 25.0839 7.34528 24.716 7.83751C24.3481 8.32973 23.651 8.43046 23.1587 8.0624C22.9307 7.89195 22.3006 7.52553 21.3787 7.80331C20.8401 7.96561 20.7004 8.49699 20.6705 8.65595C20.6117 8.9683 20.6777 9.26107 20.8349 9.38434C21.4021 9.82924 22.4232 10.2232 23.3471 10.5498C25.0509 11.152 25.9982 12.7304 25.7046 14.4775C25.5604 15.3348 25.1292 16.1301 24.4902 16.7172C24.0549 17.1171 23.5483 17.4022 22.9933 17.5651V18.0703C22.9933 18.6847 22.4952 19.1829 21.8807 19.1829C21.2662 19.1829 20.7681 18.6847 20.7681 18.0703V17.676C20.0487 17.5888 19.4447 17.3638 18.6345 16.8338C18.1204 16.4974 17.9762 15.8078 18.3125 15.2936ZM4.21723 27.051H1.68031C1.06584 27.051 0.567688 27.5492 0.567688 28.1636V36.8858C0.567688 37.5003 1.06584 37.9984 1.68031 37.9984H4.2173L4.21723 27.051ZM37.1061 26.9734C35.0207 24.8879 31.6275 24.8879 29.5422 26.9734L26.2092 30.3062L24.8432 31.6723C24.2911 32.2244 23.5423 32.5346 22.7615 32.5346H16.1188C15.5189 32.5346 15.0027 32.0735 14.9744 31.4743C14.9443 30.8344 15.4541 30.3062 16.0873 30.3062H22.8391C24.1967 30.3062 25.3741 29.3398 25.6075 28.0025C25.6611 27.6954 25.6891 27.3796 25.6891 27.0574C25.6891 26.4418 25.1904 25.9423 24.5749 25.9423H20.8753C19.6662 25.9423 18.5052 25.3939 17.2759 24.8131C15.9865 24.2041 14.6533 23.5742 13.0944 23.4705C11.7309 23.3797 10.3643 23.529 9.03234 23.9136C7.60619 24.3254 6.58102 25.5925 6.4567 27.0553C6.45196 27.055 6.44713 27.0549 6.44231 27.0546V37.9947L25.611 37.9999C26.929 37.9999 28.1681 37.4866 29.1002 36.5546L37.1059 28.549C37.5412 28.114 37.5412 27.4085 37.1061 26.9734Z" fill="#FC9012"/>
</g>
<defs>
<clipPath id="clip0_321_993">
<rect width="38" height="38" fill="white"/>
</clipPath>
</defs>
</svg>
