<svg width="36" height="36" viewBox="0 0 36 36" fill="none" xmlns="http://www.w3.org/2000/svg">
<path d="M32.9999 4.12509C32.9999 1.84655 31.1534 0 28.8751 0H11.6249C9.34664 0 7.50009 1.84655 7.50009 4.12509V24.3751C7.50009 26.6534 9.34664 28.4999 11.6249 28.4999H28.8751C31.1534 28.4999 32.9999 26.6534 32.9999 24.3751V4.12509ZM25.875 21.7499H14.625C14.004 21.7499 13.5 21.2459 13.5 20.6249C13.5 20.0039 14.004 19.4999 14.625 19.4999H25.875C26.496 19.4999 27 20.0039 27 20.6249C27 21.2459 26.496 21.7499 25.875 21.7499ZM25.875 17.2499H14.625C14.004 17.2499 13.5 16.7459 13.5 16.1249C13.5 15.5039 14.004 14.9999 14.625 14.9999H25.875C26.496 14.9999 27 15.5039 27 16.1249C27 16.7459 26.496 17.2499 25.875 17.2499ZM25.875 12.7499H14.625C14.004 12.7499 13.5 12.2459 13.5 11.6249C13.5 11.0039 14.004 10.4999 14.625 10.4999H25.875C26.496 10.4999 27 11.0039 27 11.6249C27 12.2459 26.496 12.7499 25.875 12.7499Z" fill="#FC9012"/>
<path d="M11.6249 30.7499C8.109 30.7499 5.25009 27.8896 5.25009 24.3751V4.1251C5.25009 3.996 5.28005 3.87598 5.28743 3.74991H4.12509C1.84957 3.74991 0 5.59948 0 7.875V31.8749C0 34.1504 1.84957 36 4.12509 36H22.1251C24.4006 36 26.2499 34.1504 26.2499 31.8749V30.7499H11.6249Z" fill="#FC9012"/>
</svg>
