<svg width="38" height="38" viewBox="0 0 38 38" fill="none" xmlns="http://www.w3.org/2000/svg">
<path d="M3.64799 37.088H13.832C15.504 37.088 16.72 35.72 16.72 34.2V26.904C16.72 25.232 15.352 24.016 13.832 24.016H9.87999V21.28C9.87999 21.128 10.032 20.976 10.184 20.976H27.664C27.816 20.976 27.968 21.128 27.968 21.28V24.016H24.016C22.344 24.016 21.128 25.384 21.128 26.904V34.2C21.128 35.872 22.496 37.088 24.016 37.088H34.2C35.872 37.088 37.088 35.72 37.088 34.2V26.904C37.088 25.232 35.72 24.016 34.2 24.016H31.008V21.28C31.008 19.456 29.488 17.936 27.664 17.936H20.368V13.984H23.864C25.536 13.984 26.752 12.616 26.752 11.096V3.952C26.752 2.28 25.384 1.064 23.864 1.064H13.832C12.16 1.064 10.944 2.432 10.944 3.952V11.248C10.944 12.92 12.312 14.136 13.832 14.136H17.48V18.088H10.184C8.35999 18.088 6.83999 19.608 6.83999 21.432V24.168H3.64799C1.97599 24.168 0.759995 25.536 0.759995 27.056V34.352C0.759995 35.72 2.12799 37.088 3.64799 37.088Z" fill="#FC9012"/>
</svg>
