<svg width="38" height="38" viewBox="0 0 38 38" fill="none" xmlns="http://www.w3.org/2000/svg">
<g clip-path="url(#clip0_321_1012)">
<path d="M27.8673 0.000556946V10.1334H38.0002L27.8673 0.000556946ZM12.6325 36.4257L10.6921 28.6411C11.903 27.4885 12.668 25.8672 12.668 24.0661C12.668 20.5753 9.82573 17.7331 6.33496 17.7331C2.84418 17.7331 0.00191233 20.5753 0.00191233 24.0661C0.00191233 25.8672 0.766944 27.4885 1.97782 28.6411L0.0373774 36.4257C-0.0816838 36.9045 0.090575 37.4111 0.475624 37.7227C0.860673 38.0317 1.39265 38.0849 1.83343 37.8671L6.33496 35.6151L10.8339 37.8671C11.0138 37.9532 11.2089 37.9988 11.4014 37.9988C11.6826 37.9988 11.9638 37.9051 12.1943 37.7227C12.5793 37.4111 12.7516 36.907 12.6325 36.4257ZM6.33496 27.8659C4.23998 27.8659 2.53513 26.1611 2.53513 24.0661C2.53513 21.9711 4.23998 20.2663 6.33496 20.2663C8.42993 20.2663 10.1348 21.9711 10.1348 24.0661C10.1348 26.1611 8.42993 27.8659 6.33496 27.8659Z" fill="#FC9012"/>
<path d="M27.8671 12.6666C26.4713 12.6666 25.3339 11.5292 25.3339 10.1334V0.000556946H10.1346C8.73881 0.000556946 7.60139 1.13797 7.60139 2.53377V15.3291C11.8876 15.9497 15.201 19.6102 15.201 24.0661C15.201 25.9812 14.5931 27.8001 13.4683 29.3124L15.0035 35.4656H35.4668C36.8651 35.4656 38 34.3307 38 32.9324V12.6666H27.8671ZM13.9344 10.1334C13.2353 10.1334 12.6678 9.56598 12.6678 8.86682C12.6678 8.16765 13.2353 7.60021 13.9344 7.60021H21.5341C22.2333 7.60021 22.8007 8.16765 22.8007 8.86682C22.8007 9.56598 22.2333 10.1334 21.5341 10.1334H13.9344ZM31.667 25.3327H19.0009C18.3017 25.3327 17.7343 24.7653 17.7343 24.0661C17.7343 23.367 18.3017 22.7995 19.0009 22.7995H31.667C32.3661 22.7995 32.9336 23.367 32.9336 24.0661C32.9336 24.7653 32.3661 25.3327 31.667 25.3327ZM31.667 17.7331H16.4677C15.7685 17.7331 15.201 17.1656 15.201 16.4665C15.201 15.7673 15.7685 15.1999 16.4677 15.1999H31.667C32.3661 15.1999 32.9336 15.7673 32.9336 16.4665C32.9336 17.1656 32.3661 17.7331 31.667 17.7331Z" fill="#FC9012"/>
</g>
<defs>
<clipPath id="clip0_321_1012">
<rect width="38" height="38" fill="white"/>
</clipPath>
</defs>
</svg>
