<svg width="38" height="38" viewBox="0 0 38 38" fill="none" xmlns="http://www.w3.org/2000/svg">
<g clip-path="url(#clip0_321_999)">
<path d="M23.8242 1.11328C23.8242 0.498453 23.3258 0 22.7109 0H15.2891C14.6742 0 14.1758 0.498453 14.1758 1.11328V2.96875H23.8242V1.11328ZM36.8867 35.7734H36.4414V25.0117C36.4414 24.59 36.2032 24.2045 35.826 24.016L33.1016 22.6538V35.7734H30.875V19.0742C30.875 18.7019 30.689 18.3544 30.3792 18.148L23.6995 13.6948C23.5319 13.5831 23.337 13.5189 23.1358 13.5091C22.9345 13.4994 22.7344 13.5445 22.5567 13.6395C22.379 13.7346 22.2305 13.8761 22.127 14.049C22.0234 14.2219 21.9687 14.4196 21.9688 14.6211V35.7734H19.7422V14.6211C19.7416 14.0165 19.9054 13.423 20.2162 12.9043C20.5269 12.3856 20.9728 11.9612 21.5061 11.6764C21.9911 11.4174 22.5322 11.2817 23.082 11.2812C23.7416 11.2806 24.3866 11.4759 24.9351 11.8425L26.0508 12.5863V6.30859C26.0508 5.69377 25.5523 5.19531 24.9375 5.19531H13.0625C12.4477 5.19531 11.9492 5.69377 11.9492 6.30859V7.57031H13.8047C15.6463 7.57031 17.1445 9.06857 17.1445 10.9102V35.7734H14.918V10.9102C14.918 10.2953 14.4195 9.79688 13.8047 9.79688H7.125C6.51017 9.79688 6.01172 10.2953 6.01172 10.9102V25.7539H8.60938C10.451 25.7539 11.9492 27.2522 11.9492 29.0938V35.7734H9.72266V29.0938C9.72266 28.4789 9.2242 27.9805 8.60938 27.9805H2.67188C2.05705 27.9805 1.55859 28.4789 1.55859 29.0938V35.7734H1.11328C0.498453 35.7734 0 36.2719 0 36.8867C0 37.5015 0.498453 38 1.11328 38H36.8867C37.5015 38 38 37.5015 38 36.8867C38 36.2719 37.5015 35.7734 36.8867 35.7734ZM25.3086 22.7852C25.3086 22.1703 25.807 21.6719 26.4219 21.6719C27.0367 21.6719 27.5352 22.1703 27.5352 22.7852V25.0117C27.5352 25.6265 27.0367 26.125 26.4219 26.125C25.807 26.125 25.3086 25.6265 25.3086 25.0117V22.7852ZM25.3086 29.4648C25.3086 28.85 25.807 28.3516 26.4219 28.3516C27.0367 28.3516 27.5352 28.85 27.5352 29.4648V31.6914C27.5352 32.3062 27.0367 32.8047 26.4219 32.8047C25.807 32.8047 25.3086 32.3062 25.3086 31.6914V29.4648ZM11.5781 22.7852C11.5781 23.4 11.0797 23.8984 10.4648 23.8984C9.85002 23.8984 9.35156 23.4 9.35156 22.7852V20.5586C9.35156 19.9438 9.85002 19.4453 10.4648 19.4453C11.0797 19.4453 11.5781 19.9438 11.5781 20.5586V22.7852ZM11.5781 16.1055C11.5781 16.7203 11.0797 17.2188 10.4648 17.2188C9.85002 17.2188 9.35156 16.7203 9.35156 16.1055V13.8789C9.35156 13.2641 9.85002 12.7656 10.4648 12.7656C11.0797 12.7656 11.5781 13.2641 11.5781 13.8789V16.1055ZM4.52734 33.1758C4.52734 32.561 5.0258 32.0625 5.64062 32.0625C6.25545 32.0625 6.75391 32.561 6.75391 33.1758V35.7734H4.52734V33.1758Z" fill="#FC9012"/>
</g>
<defs>
<clipPath id="clip0_321_999">
<rect width="38" height="38" fill="white"/>
</clipPath>
</defs>
</svg>
