<?xml version="1.0" encoding="utf-8"?>
<!-- Generator: Adobe Illustrator 28.3.0, SVG Export Plug-In . SVG Version: 6.00 Build 0)  -->
<svg version="1.1" id="Layer_1" xmlns="http://www.w3.org/2000/svg" xmlns:xlink="http://www.w3.org/1999/xlink" x="0px" y="0px"
	 viewBox="0 0 560.5 152.1" style="enable-background:new 0 0 560.5 152.1;" xml:space="preserve">
<style type="text/css">
	.st0{fill:none;}
	.st1{fill:url(#SVGID_1_);}
	.st2{fill:url(#SVGID_00000007389316116365324940000002209175259542732469_);}
	.st3{fill:url(#SVGID_00000011033753882145441100000011308575807463406477_);}
	.st4{fill:url(#SVGID_00000083774253617674268990000002319364010845174913_);}
	.st5{fill:url(#SVGID_00000129892628862924065090000009680003655822757559_);}
	.st6{fill:url(#SVGID_00000075122161437279598020000003805234164487568524_);}
	.st7{fill:url(#SVGID_00000134211010320257616130000005083240752281496982_);}
	.st8{fill:url(#SVGID_00000071538551118065796400000004061703446321935510_);}
	.st9{fill:url(#SVGID_00000159461623227451856320000015976637580505323953_);}
	.st10{fill:url(#SVGID_00000044165531261391684330000017827693119891828911_);}
	.st11{fill:url(#SVGID_00000080900998305041379500000001159254662566848949_);}
	.st12{fill:url(#SVGID_00000124163410562331841300000009543455513544267454_);}
	.st13{fill:url(#SVGID_00000166640569829450840230000009126362554152324502_);}
	.st14{fill:url(#SVGID_00000000220940898588614990000006463626368406320277_);}
	.st15{fill:url(#SVGID_00000180327821840461362670000010313195190624462734_);}
	.st16{fill:url(#SVGID_00000178173564928141796160000012876345366866064575_);}
	.st17{fill:url(#SVGID_00000099643493500367391900000013253264683357288325_);}
	.st18{fill:url(#SVGID_00000008141369257669688030000013685838887792319164_);}
	.st19{fill:url(#SVGID_00000059300530689765303040000010959586415092866235_);}
	.st20{fill:url(#SVGID_00000162332932775687899180000005528487010929760906_);}
	.st21{fill:url(#SVGID_00000165922032402962898670000003433802198570033852_);}
	.st22{fill:url(#SVGID_00000051370860529271134020000015763718731334022273_);}
	.st23{fill:#27AAE1;}
	.st24{fill:url(#SVGID_00000170267994889638252570000001520901039543220138_);}
	.st25{fill:url(#SVGID_00000134960855751533902100000015972604685855339701_);}
	.st26{fill:#414042;}
	.st27{fill:#DBBA3F;}
	.st28{fill:url(#SVGID_00000090973942920858020780000005454029275191263108_);}
	.st29{fill:url(#SVGID_00000143582249912026931260000002810841947522328977_);}
	.st30{fill:#6E6E6E;}
	.st31{fill:url(#SVGID_00000051386028550590398380000012214599059794082472_);}
	.st32{fill:url(#SVGID_00000170272728015594154210000010884830000901467785_);}
	.st33{fill:#C18B2C;}
	.st34{fill:url(#SVGID_00000005952970043461643520000007928577194991600257_);}
	.st35{fill:url(#SVGID_00000052092331324717647060000001332624817168078742_);}
	.st36{fill:#F36E35;}
	.st37{font-family:'Times-Bold';}
	.st38{font-size:24.95px;}
	.st39{font-size:18.38px;}
	.st40{font-size:22.32px;}
	.st41{letter-spacing:-0.9;}
</style>
<rect x="167.3" y="78" class="st0" width="392" height="241.5"/>
<linearGradient id="SVGID_1_" gradientUnits="userSpaceOnUse" x1="205.83" y1="235.84" x2="205.83" y2="201.05" gradientTransform="matrix(1 0 0 -1 -25.18 279.83)">
	<stop  offset="0" style="stop-color:#27AAE1"/>
	<stop  offset="0.14" style="stop-color:#27A4DB"/>
	<stop  offset="0.33" style="stop-color:#2792CA"/>
	<stop  offset="0.55" style="stop-color:#2774AF"/>
	<stop  offset="0.79" style="stop-color:#264B88"/>
	<stop  offset="1" style="stop-color:#262262"/>
</linearGradient>
<path class="st1" d="M186.6,77.3c-7.4,0-12.9-1.7-17.3-5.5c-4.2-3.7-6.3-8.7-6.3-14.9c0-5.2,2.1-10.2,5.9-13.9c4-3.7,9-5.4,15.9-5.4
	c2.4,0,4.8,0.2,7.2,0.5c0.9,0.1,1.8,0.3,2.6,0.4s1.6,0.3,2.4,0.4c1,0.1,1.1,0.8,1.1,1c0,0.2,0,0.4-0.1,0.7c0,0.4-0.1,1-0.2,2.1
	c0,0.8-0.1,1.8-0.1,2.8c0,1,0,2-0.1,2.5s-0.1,1.5-1,1.5s-0.9-1-0.9-1.4c-0.1-1.6-0.7-3.2-1.8-4.3c-1.7-1.8-5.6-3-9.8-3
	c-4,0-6.8,0.9-9.1,3c-3,2.8-4.5,6.8-4.5,12.6c0,11.8,9.1,17.3,15.3,17.3c4.2,0,6.9-0.4,8.8-2.7c0.8-0.9,1.3-2,1.6-3.1
	c0.1-0.7,0.2-1.3,1-1.3c0.2,0,0.8,0.1,0.8,1.1c-0.2,2.3-0.6,4.5-1.1,6.7c-0.1,0.8-0.7,1.4-1.5,1.7C193.5,77,189.5,77.3,186.6,77.3
	L186.6,77.3z"/>
<linearGradient id="SVGID_00000059288695358671483510000000268574414813081229_" gradientUnits="userSpaceOnUse" x1="205.8499" y1="235.6" x2="205.8499" y2="201.45" gradientTransform="matrix(1 0 0 -1 -25.18 279.83)">
	<stop  offset="0" style="stop-color:#27AAE1"/>
	<stop  offset="0.14" style="stop-color:#27A4DB"/>
	<stop  offset="0.33" style="stop-color:#2792CA"/>
	<stop  offset="0.55" style="stop-color:#2774AF"/>
	<stop  offset="0.79" style="stop-color:#264B88"/>
	<stop  offset="1" style="stop-color:#262262"/>
</linearGradient>
<path style="fill:url(#SVGID_00000059288695358671483510000000268574414813081229_);" d="M169.6,71.5c-4.9-4.3-6.1-9.8-6.1-14.6
	c0-5.1,2.1-10.1,5.8-13.6c3.6-3.3,8.3-5.3,15.7-5.3c2.4,0,4.8,0.2,7.2,0.5c1.9,0.2,3.5,0.7,5,0.8c0.5,0.1,0.7,0.3,0.7,0.6
	s-0.1,1-0.2,2.7s-0.1,4.4-0.1,5.4c0,0.7-0.1,1.1-0.6,1.1s-0.5-0.4-0.5-1.1c-0.1-1.7-0.8-3.3-1.9-4.6c-1.6-1.7-5.5-3.1-10.1-3.1
	c-4.3,0-7.1,1.1-9.3,3.1c-3.6,3.3-4.6,8-4.6,12.8c0,11.8,9,17.7,15.6,17.7c4.4,0,7.1-0.5,9.1-2.8c0.8-1,1.4-2.1,1.7-3.3
	c0.1-0.8,0.2-1,0.6-1c0.4,0,0.5,0.3,0.5,0.7c-0.2,2.2-0.6,4.4-1.1,6.6c-0.1,0.7-0.6,1.3-1.3,1.4c-2,0.8-5.8,1.1-8.9,1.1
	C179.8,77,174.1,75.5,169.6,71.5z"/>
<linearGradient id="SVGID_00000000182679076737738300000000120728949578290313_" gradientUnits="userSpaceOnUse" x1="248.005" y1="235.95" x2="248.005" y2="201.05" gradientTransform="matrix(1 0 0 -1 -25.18 279.83)">
	<stop  offset="0" style="stop-color:#27AAE1"/>
	<stop  offset="0.14" style="stop-color:#27A4DB"/>
	<stop  offset="0.33" style="stop-color:#2792CA"/>
	<stop  offset="0.55" style="stop-color:#2774AF"/>
	<stop  offset="0.79" style="stop-color:#264B88"/>
	<stop  offset="1" style="stop-color:#262262"/>
</linearGradient>
<path style="fill:url(#SVGID_00000000182679076737738300000000120728949578290313_);" d="M222.6,77.2c-12.5,0-18.2-8.8-18.2-16.9
	s5.8-16.9,18.7-16.9c11.2,0,18.2,6.2,18.2,16.1C241.3,69.9,233.6,77.2,222.6,77.2L222.6,77.2z M221.8,46.4
	c-3.8,0-10.2,1.6-10.2,12.6c0,8.9,5.3,15.2,12.8,15.2c2.9,0,9.6-1.3,9.6-13.1C234,52.4,229,46.4,221.8,46.4z"/>
<linearGradient id="SVGID_00000083075178671146171500000004177206326733902977_" gradientUnits="userSpaceOnUse" x1="248.005" y1="235.6" x2="248.005" y2="201.45" gradientTransform="matrix(1 0 0 -1 -25.18 279.83)">
	<stop  offset="0" style="stop-color:#27AAE1"/>
	<stop  offset="0.14" style="stop-color:#27A4DB"/>
	<stop  offset="0.33" style="stop-color:#2792CA"/>
	<stop  offset="0.55" style="stop-color:#2774AF"/>
	<stop  offset="0.79" style="stop-color:#264B88"/>
	<stop  offset="1" style="stop-color:#262262"/>
</linearGradient>
<path style="fill:url(#SVGID_00000083075178671146171500000004177206326733902977_);" d="M204.7,60.3c0-7.2,5.1-16.5,18.3-16.5
	c11,0,17.9,6.1,17.9,15.8s-7.1,17.3-18.3,17.3C209.9,76.8,204.7,67.8,204.7,60.3z M234.4,61.1c0-9.3-5.6-15.1-12.6-15.1
	c-4.9,0-10.6,2.6-10.6,13c0,8.7,5,15.5,13.2,15.5C227.5,74.5,234.4,73.1,234.4,61.1z"/>
<linearGradient id="SVGID_00000135670630372215965510000017310367001621906077_" gradientUnits="userSpaceOnUse" x1="289.7" y1="235.95" x2="289.7" y2="201.04" gradientTransform="matrix(1 0 0 -1 -25.18 279.83)">
	<stop  offset="0" style="stop-color:#27AAE1"/>
	<stop  offset="0.14" style="stop-color:#27A4DB"/>
	<stop  offset="0.33" style="stop-color:#2792CA"/>
	<stop  offset="0.55" style="stop-color:#2774AF"/>
	<stop  offset="0.79" style="stop-color:#264B88"/>
	<stop  offset="1" style="stop-color:#262262"/>
</linearGradient>
<path style="fill:url(#SVGID_00000135670630372215965510000017310367001621906077_);" d="M278.2,77.1c-0.8-0.1-1.5-0.4-2-1
	c-2.6-2.4-8-7.5-12.8-12.2c-3-2.9-6-6.1-8-8.2c-0.7-0.8-1.3-1.4-1.7-1.8l0.5,16.5c0.1,3.4,0.7,4,1.2,4.2c0.7,0.2,1.4,0.3,2.2,0.3
	c0.8,0,1.1,0.4,1.1,0.8c0,0.8-1,0.8-1.4,0.8c-1.9,0-3.4-0.1-4.4-0.1h-1.2H251c-0.9,0-2.4,0.1-4,0.1c-0.5,0-1.4,0-1.4-0.8
	c0-0.5,0.5-0.8,1.1-0.8c0.6,0,1.3-0.1,1.9-0.2c0.8-0.2,1-1,1.1-4.8l0.4-25c0-1.1,0.4-1.8,1.1-1.8s1.2,0.6,2,1.3l0.9,0.9
	c2,2,7.4,7.5,12.7,12.7c1.7,1.6,4.2,4.2,6.3,6.3l2.7,2.8l-0.4-18c0-2.5-0.4-3.1-1.3-3.4c-0.7-0.2-1.4-0.3-2.1-0.2
	c-1,0-1.1-0.6-1.1-0.8c0-0.8,1-0.8,1.5-0.8c1.4,0,2.8,0,3.9,0.1h1.6h0.8c0.8,0,2-0.1,3.5-0.1c0.5,0,1.4,0,1.4,0.8
	c0,0.4-0.3,0.8-1.1,0.8c-0.4,0-0.8,0-1.2,0.1c-0.9,0.3-1.3,0.8-1.3,3.1l-0.5,26.6C279.3,76.7,278.7,77.1,278.2,77.1L278.2,77.1z"/>
<linearGradient id="SVGID_00000016783529611673227640000003977852501384515969_" gradientUnits="userSpaceOnUse" x1="289.67" y1="235.6" x2="289.67" y2="201.45" gradientTransform="matrix(1 0 0 -1 -25.18 279.83)">
	<stop  offset="0" style="stop-color:#27AAE1"/>
	<stop  offset="0.14" style="stop-color:#27A4DB"/>
	<stop  offset="0.33" style="stop-color:#2792CA"/>
	<stop  offset="0.55" style="stop-color:#2774AF"/>
	<stop  offset="0.79" style="stop-color:#264B88"/>
	<stop  offset="1" style="stop-color:#262262"/>
</linearGradient>
<path style="fill:url(#SVGID_00000016783529611673227640000003977852501384515969_);" d="M253.8,70.5c0.1,3.3,0.6,4.3,1.5,4.6
	c0.7,0.2,1.5,0.3,2.3,0.3c0.5,0,0.8,0.2,0.8,0.4s-0.4,0.4-1,0.4c-2.8,0-4.9-0.1-5.6-0.1c-0.4,0-2.5,0.1-4.7,0.1c-0.6,0-1,0-1-0.4
	s0.3-0.4,0.7-0.4c0.7,0,1.3-0.1,2-0.2c1.1-0.3,1.3-1.4,1.3-5.1l0.4-25c0-0.8,0.3-1.4,0.7-1.4s1.1,0.7,1.9,1.4
	c0.5,0.6,7.1,7.2,13.4,13.4c3,2.9,8.8,8.9,9.4,9.5h0.2l-0.4-18.8c0-2.6-0.5-3.3-1.5-3.7c-0.7-0.2-1.5-0.3-2.3-0.2
	c-0.5,0-0.7-0.2-0.7-0.4s0.5-0.4,1.1-0.4c2.3,0,4.6,0.1,5.5,0.1c0.5,0,2.1-0.1,4.3-0.1c0.6,0,1,0,1,0.4s-0.2,0.4-0.7,0.4
	c-0.5,0-0.9,0-1.3,0.2c-1.2,0.3-1.5,1.1-1.6,3.5l-0.5,26.6c0,0.9-0.3,1.3-0.7,1.3c-0.7,0-1.3-0.4-1.8-0.9
	c-2.7-2.5-8.2-7.7-12.8-12.2c-4.8-4.6-9.4-9.7-10.2-10.4h-0.1L253.8,70.5z"/>
<linearGradient id="SVGID_00000012459343183263071100000015651205217077801657_" gradientUnits="userSpaceOnUse" x1="328.32" y1="235.95" x2="328.32" y2="201.03" gradientTransform="matrix(1 0 0 -1 -25.18 279.83)">
	<stop  offset="0" style="stop-color:#27AAE1"/>
	<stop  offset="0.14" style="stop-color:#27A4DB"/>
	<stop  offset="0.33" style="stop-color:#2792CA"/>
	<stop  offset="0.55" style="stop-color:#2774AF"/>
	<stop  offset="0.79" style="stop-color:#264B88"/>
	<stop  offset="1" style="stop-color:#262262"/>
</linearGradient>
<path style="fill:url(#SVGID_00000012459343183263071100000015651205217077801657_);" d="M310.4,76.6c-1.7,0-3.5-0.1-4.9-0.1
	c-0.9,0-1.7,0-2.1,0s-1.2,0-2.1,0.1c-1.2,0-2.6,0.1-3.6,0.1s-1.2-0.6-1.2-0.8s0.3-0.8,1-0.8c0.5,0,1,0,1.4-0.1
	c0.6-0.1,0.9-0.6,1-1.9c0.2-1.8,0.2-5.1,0.2-8.9V47.3l-6.1,0.1c-2.4,0-3.4,0.3-3.9,1.1c-0.3,0.4-0.5,0.9-0.7,1.3
	c-0.1,0.4-0.4,0.8-0.9,0.8c-0.3,0-0.8-0.2-0.8-1.1s0.9-4.9,1-5.2s0.2-1.1,0.9-1.1c0.2,0,0.4,0.1,0.6,0.2c0.4,0.2,0.8,0.3,1.3,0.3
	c1.4,0.1,2.9,0.2,4.3,0.2h17.7c1,0,2-0.1,2.9-0.2c0.4,0,0.6-0.1,0.8-0.1c0.1,0,0.3-0.1,0.4-0.1c0.7,0,0.7,0.8,0.7,1.3s0,1.4,0,2.3
	s-0.1,2.2-0.1,2.8c0,0.3-0.1,1.1-0.8,1.1s-0.8-0.7-0.9-1.2v-0.4c-0.1-0.6-0.6-2.1-4.8-2.1l-5.2-0.1V64c0,4.6,0.1,7.4,0.2,9
	c0.1,1.2,0.4,1.7,1.4,1.9c0.7,0.1,1.5,0.2,2.2,0.2c0.7,0,1.1,0.4,1.1,0.8S311.4,76.6,310.4,76.6L310.4,76.6z"/>
<linearGradient id="SVGID_00000031190795595146333300000000526135016218750876_" gradientUnits="userSpaceOnUse" x1="328.35" y1="235.6" x2="328.35" y2="201.44" gradientTransform="matrix(1 0 0 -1 -25.18 279.83)">
	<stop  offset="0" style="stop-color:#27AAE1"/>
	<stop  offset="0.14" style="stop-color:#27A4DB"/>
	<stop  offset="0.33" style="stop-color:#2792CA"/>
	<stop  offset="0.55" style="stop-color:#2774AF"/>
	<stop  offset="0.79" style="stop-color:#264B88"/>
	<stop  offset="1" style="stop-color:#262262"/>
</linearGradient>
<path style="fill:url(#SVGID_00000031190795595146333300000000526135016218750876_);" d="M300.6,46.9l-6.5,0.2
	c-2.5,0-3.6,0.3-4.2,1.3c-0.3,0.4-0.6,0.9-0.7,1.4c-0.1,0.3-0.2,0.5-0.5,0.5s-0.4-0.2-0.4-0.7c0-0.7,0.8-4.8,0.9-5.1
	c0.1-0.6,0.2-0.8,0.5-0.8s0.8,0.3,1.9,0.5c1.5,0.1,2.9,0.2,4.4,0.2h17.7c1,0,2-0.1,3-0.2c0.7-0.1,1-0.2,1.2-0.2
	c0.3,0,0.4,0.2,0.4,0.9c0,0.9-0.1,4-0.1,5.1c0,0.4-0.1,0.7-0.4,0.7s-0.4-0.2-0.5-0.8l0-0.4c-0.1-1.1-1.2-2.4-5.2-2.4l-5.5-0.1V64
	c0,3.9,0,7.2,0.2,9c0.1,1.2,0.4,2,1.7,2.2c0.7,0.1,1.5,0.2,2.2,0.2c0.5,0,0.7,0.2,0.7,0.4s-0.3,0.4-0.8,0.4c-2.9,0-5.8-0.1-7-0.1
	c-1,0-4,0.1-5.7,0.1c-0.5,0-0.8-0.1-0.8-0.4s0.1-0.4,0.7-0.4c0.5,0,1,0,1.5-0.2c0.9-0.2,1.1-1,1.3-2.2c0.2-1.8,0.2-5.1,0.2-9
	L300.6,46.9z"/>
<linearGradient id="SVGID_00000154402639266477981610000006051713086779661712_" gradientUnits="userSpaceOnUse" x1="366.2901" y1="235.96" x2="366.2901" y2="201.03" gradientTransform="matrix(1 0 0 -1 -25.18 279.83)">
	<stop  offset="0" style="stop-color:#27AAE1"/>
	<stop  offset="0.14" style="stop-color:#27A4DB"/>
	<stop  offset="0.33" style="stop-color:#2792CA"/>
	<stop  offset="0.55" style="stop-color:#2774AF"/>
	<stop  offset="0.79" style="stop-color:#264B88"/>
	<stop  offset="1" style="stop-color:#262262"/>
</linearGradient>
<path style="fill:url(#SVGID_00000154402639266477981610000006051713086779661712_);" d="M353.6,76.6c-1.7,0.1-3.4-0.2-4.9-0.9
	c-1.9-1-3.5-2.8-6.1-6.3c-1-1.3-2-2.7-2.8-3.8c-0.6-0.9-1.1-1.6-1.3-1.9c-0.1-0.1-0.3-0.2-0.5-0.2l-3.9-0.1V64c0,3.1,0,7,0.2,8.9
	c0.1,1.2,0.3,1.8,1.4,1.9c0.7,0.1,1.4,0.1,2.1,0.2c0.5,0,0.9,0.3,0.9,0.8c0,0,0,0,0,0c0,0.2-0.1,0.8-1.3,0.8c-1.7,0-3.9-0.1-5.3-0.1
	h-1.5h-1.8c-1.1,0-2.5,0.1-3.6,0.1S324,76,324,75.8s0.3-0.8,1.1-0.8c0.5,0,1,0,1.5-0.1c0.6-0.1,0.9-0.6,1-1.9
	c0.2-1.8,0.2-5.1,0.2-8.9v-7.4c0-6.4,0-7.6,0-8.9s-0.4-1.6-1.6-1.9c-0.5-0.1-1.1-0.1-1.6-0.1c-0.8,0-1.1-0.4-1.1-0.8
	c0-0.8,1-0.8,1.4-0.8c1.4,0,3,0,4.2,0.1h1.7c0.8,0,2.2,0,3.5-0.1s2.6,0,3.2,0c2.6,0,6,0.2,8.5,1.8c2,1.4,3.2,3.7,3.2,6.1
	c0,3.2-1.8,6-5.9,9.4l0.3,0.3c3.6,4.5,6.5,8.1,9,10.6c2.2,2.2,3.7,2.5,4.4,2.7h0.1c0.3,0.1,0.7,0.1,1,0.1c0.5,0,0.9,0.3,0.9,0.8
	c0,0,0,0,0,0c0,0.8-0.9,0.8-1.2,0.8L353.6,76.6z M336.7,46.9c-0.8,0-1.7,0-2.5,0.1c-0.1,0-0.1,0-0.1,0.2v12.5c0,0.3,0,0.3,0.2,0.4
	c1,0.3,2.1,0.4,3.2,0.4c1.7,0,2.2-0.2,2.9-0.6c1.2-0.9,2.7-2.6,2.7-6C343,48.7,339.6,46.9,336.7,46.9L336.7,46.9z"/>
<linearGradient id="SVGID_00000082326495422945695680000003806751116323939768_" gradientUnits="userSpaceOnUse" x1="366.32" y1="235.6" x2="366.32" y2="201.44" gradientTransform="matrix(1 0 0 -1 -25.18 279.83)">
	<stop  offset="0" style="stop-color:#27AAE1"/>
	<stop  offset="0.14" style="stop-color:#27A4DB"/>
	<stop  offset="0.33" style="stop-color:#2792CA"/>
	<stop  offset="0.55" style="stop-color:#2774AF"/>
	<stop  offset="0.79" style="stop-color:#264B88"/>
	<stop  offset="1" style="stop-color:#262262"/>
</linearGradient>
<path style="fill:url(#SVGID_00000082326495422945695680000003806751116323939768_);" d="M328.1,56.6c0-6.4,0-7.6,0-8.9
	s-0.5-1.9-1.9-2.3c-0.6-0.1-1.1-0.2-1.7-0.2c-0.5,0-0.8-0.2-0.8-0.4s0.4-0.4,1-0.4c2.3,0,5.1,0.1,6,0.1c1.5,0,5.5-0.1,6.8-0.1
	c2.8,0,6,0.2,8.3,1.8c1.9,1.4,3,3.5,3,5.8c0,3.1-1.8,5.9-6,9.3c3.9,4.8,7,8.6,9.6,11.2c2.4,2.4,4,2.6,4.7,2.8c0.3,0.1,0.7,0.1,1,0.1
	c0.3,0,0.5,0.2,0.5,0.4c0,0.3-0.3,0.4-0.9,0.4h-4.2c-1.6,0.1-3.3-0.1-4.8-0.8c-1.9-0.9-3.5-2.9-6-6.2c-1.7-2.3-3.6-5.1-4.1-5.8
	c-0.2-0.2-0.5-0.3-0.8-0.3l-3.9-0.1c-0.2,0-0.3,0.1-0.4,0.3c0,0,0,0,0,0.1V64c0,3.9,0,7.2,0.2,9c0.1,1.2,0.4,2,1.7,2.2
	c0.7,0.1,1.4,0.1,2.1,0.2c0.3,0,0.5,0.2,0.5,0.4c0,0.3-0.4,0.4-0.9,0.4c-2.5,0-6.1-0.1-6.8-0.1c-0.8,0-3.6,0.1-5.4,0.1
	c-0.5,0-0.8-0.1-0.8-0.4s0.1-0.4,0.7-0.4c0.5,0,1,0,1.5-0.2c0.9-0.2,1.1-1,1.3-2.2c0.2-1.8,0.2-5.1,0.2-9L328.1,56.6z M333.7,59.8
	c0,0.4,0.1,0.6,0.4,0.8c1.1,0.3,2.2,0.4,3.3,0.4c1.7,0,2.3-0.2,3.1-0.7c1.3-0.9,2.8-2.8,2.8-6.2c0-6-4.1-7.5-6.6-7.5
	c-0.9,0-1.7,0-2.6,0.2c-0.3,0.1-0.4,0.3-0.4,0.6V59.8z"/>
<linearGradient id="SVGID_00000057841099941710143850000011406036283323607713_" gradientUnits="userSpaceOnUse" x1="397.7598" y1="235.94" x2="397.7598" y2="201.03" gradientTransform="matrix(1 0 0 -1 -25.18 279.83)">
	<stop  offset="0" style="stop-color:#27AAE1"/>
	<stop  offset="0.14" style="stop-color:#27A4DB"/>
	<stop  offset="0.33" style="stop-color:#2792CA"/>
	<stop  offset="0.55" style="stop-color:#2774AF"/>
	<stop  offset="0.79" style="stop-color:#264B88"/>
	<stop  offset="1" style="stop-color:#262262"/>
</linearGradient>
<path style="fill:url(#SVGID_00000057841099941710143850000011406036283323607713_);" d="M388.8,76.6c-1.5,0-4.7,0-8.4-0.1h-0.2
	c-0.8-0.1-1.4-0.1-1.4-0.7c0-0.5,0.4-0.8,0.8-0.8c0,0,0,0,0,0c0,0,0.1-0.1,0.1-0.1c0-0.1,0-0.2,0-0.3l-3.4-8.5l-0.1-0.1H366
	c0,0,0,0,0,0.1l-2.3,5.7c-0.3,0.8-0.6,1.6-0.6,2.4c0,0.3,0,0.8,1.4,0.8h0.6c0.8,0,1,0.4,1,0.8s-0.2,0.8-1.1,0.8s-1.6,0-2.5-0.1
	s-1.7-0.1-2.4-0.1h-0.9c-1,0-2.6,0.1-4.2,0.1c-0.3,0-1.2,0-1.2-0.8c0-0.4,0.3-0.8,0.8-0.8c0,0,0.1,0,0.1,0h0.6h0.7
	c1.7-0.3,2.4-1.3,3.3-3.5l11.4-26.6c0.5-1.2,0.9-1.9,1.6-1.9c0.9,0,1.2,0.6,1.6,1.6c0.5,1.1,2.5,5.7,4.7,11c2.3,5.5,5,11.7,6.4,15
	c1.8,4,3,4.2,3.5,4.3c0.5,0.1,1,0.1,1.6,0.1c0.9,0,1,0.6,1,0.8c0,0.8-0.9,0.8-2.2,0.8L388.8,76.6z M375.1,62.9l-3.9-10.1l-4,10.2
	L375.1,62.9z"/>
<linearGradient id="SVGID_00000057831822630344275300000007598915884279470780_" gradientUnits="userSpaceOnUse" x1="397.6997" y1="235.6" x2="397.6997" y2="201.44" gradientTransform="matrix(1 0 0 -1 -25.18 279.83)">
	<stop  offset="0" style="stop-color:#27AAE1"/>
	<stop  offset="0.14" style="stop-color:#27A4DB"/>
	<stop  offset="0.33" style="stop-color:#2792CA"/>
	<stop  offset="0.55" style="stop-color:#2774AF"/>
	<stop  offset="0.79" style="stop-color:#264B88"/>
	<stop  offset="1" style="stop-color:#262262"/>
</linearGradient>
<path style="fill:url(#SVGID_00000057831822630344275300000007598915884279470780_);" d="M366.1,65.6c-0.2,0-0.3,0-0.4,0.3l-2.3,5.7
	c-0.4,0.8-0.6,1.7-0.6,2.6c0,0.8,0.4,1.2,1.7,1.2h0.6c0.5,0,0.6,0.2,0.6,0.4s-0.2,0.4-0.7,0.4c-1.4,0-3.5-0.1-4.9-0.1
	c-0.4,0-2.8,0.1-5.1,0.1c-0.5,0-0.8-0.1-0.8-0.4c0-0.2,0.2-0.4,0.4-0.5c0,0,0.1,0,0.1,0c0.4,0,0.9,0,1.3,0c2-0.3,2.7-1.6,3.6-3.7
	l11.4-26.5c0.5-1.2,0.9-1.7,1.3-1.7c0.6,0,0.9,0.4,1.3,1.3c1,2.3,8.3,19.6,11.1,26c1.7,3.8,2.9,4.4,3.7,4.5c0.5,0.1,1.1,0.1,1.6,0.2
	c0.4,0,0.6,0.1,0.6,0.4c0,0.3-0.2,0.4-1.9,0.4s-4.7,0-8.4-0.1c-0.8,0-1.3,0-1.3-0.3s0.1-0.4,0.5-0.4c0.3-0.1,0.5-0.5,0.4-0.8
	c0,0,0-0.1,0-0.1l-3.4-8.5c-0.1-0.2-0.2-0.3-0.5-0.3L366.1,65.6z M375.4,63.3c0.2,0,0.2-0.1,0.2-0.2l-4.1-10.7
	c0-0.1-0.1-0.4-0.2-0.4s-0.2,0.2-0.2,0.4L366.8,63c-0.1,0.2,0,0.3,0.1,0.3L375.4,63.3z"/>
<linearGradient id="SVGID_00000093884814981805553160000008187764954409767578_" gradientUnits="userSpaceOnUse" x1="433.125" y1="235.95" x2="433.125" y2="201.05" gradientTransform="matrix(1 0 0 -1 -25.18 279.83)">
	<stop  offset="0" style="stop-color:#27AAE1"/>
	<stop  offset="0.14" style="stop-color:#27A4DB"/>
	<stop  offset="0.33" style="stop-color:#2792CA"/>
	<stop  offset="0.55" style="stop-color:#2774AF"/>
	<stop  offset="0.79" style="stop-color:#264B88"/>
	<stop  offset="1" style="stop-color:#262262"/>
</linearGradient>
<path style="fill:url(#SVGID_00000093884814981805553160000008187764954409767578_);" d="M413.2,77.2c-6.5,0-11.5-1.5-15.2-4.6
	s-5.6-7.4-5.6-12.7c0-4.5,1.9-8.8,5.2-11.8c3.5-3.1,8-4.6,14.1-4.6c2.1,0,4.3,0.1,6.4,0.4l1.9,0.3c0.9,0.2,1.7,0.3,2.4,0.4
	s1,0.6,1,0.9s0,0.4,0,0.7s-0.1,0.9-0.1,1.7s-0.1,1.9-0.1,2.9c0,0.7,0,1.3,0,1.6c-0.1,0.9-0.4,1.4-1,1.4s-0.8-0.4-0.8-1.3
	c-0.1-1.4-0.7-2.6-1.7-3.6c-1.6-1.5-4.5-2.4-8.2-2.4s-6.1,0.7-8,2.3c-2.6,2.3-3.9,5.7-3.9,10.7c0,9.9,7.7,14.4,13.2,14.4
	c3.9,0,5.9-0.3,7.5-2.1c0.7-0.8,1.1-1.7,1.4-2.7c0.1-0.5,0.2-1.2,0.9-1.2c0.5,0,0.9,0.6,0.9,1.1c-0.2,1.9-0.5,3.8-1,5.7
	c-0.1,0.7-0.6,1.3-1.4,1.5C419,77.1,414.8,77.2,413.2,77.2L413.2,77.2z"/>
<linearGradient id="SVGID_00000076601300773306892700000011232331470308936635_" gradientUnits="userSpaceOnUse" x1="433.137" y1="235.6" x2="433.137" y2="201.45" gradientTransform="matrix(1 0 0 -1 -25.18 279.83)">
	<stop  offset="0" style="stop-color:#27AAE1"/>
	<stop  offset="0.14" style="stop-color:#27A4DB"/>
	<stop  offset="0.33" style="stop-color:#2792CA"/>
	<stop  offset="0.55" style="stop-color:#2774AF"/>
	<stop  offset="0.79" style="stop-color:#264B88"/>
	<stop  offset="1" style="stop-color:#262262"/>
</linearGradient>
<path style="fill:url(#SVGID_00000076601300773306892700000011232331470308936635_);" d="M398.2,72.2c-6.7-6-7.3-16.3-1.3-23
	c0.3-0.4,0.6-0.7,1-1c3.2-2.8,7.3-4.5,13.8-4.5c2.1,0,4.2,0.1,6.4,0.4c1.6,0.2,3.1,0.5,4.4,0.7c0.5,0.1,0.6,0.2,0.6,0.5
	s-0.1,0.8-0.2,2.3s-0.1,3.7-0.1,4.6c0,0.6-0.2,1-0.6,1s-0.5-0.3-0.5-0.9c-0.1-1.5-0.7-2.9-1.7-3.9c-1.5-1.4-4.4-2.5-8.4-2.5
	c-3.8,0-6.2,0.7-8.2,2.4c-3.2,2.8-4,6.8-4,11c0,10,7.7,14.8,13.6,14.8c3.9,0,6-0.3,7.7-2.2c0.7-0.8,1.2-1.8,1.5-2.8
	c0.1-0.6,0.2-0.8,0.5-0.8s0.5,0.4,0.5,0.7c-0.2,1.9-0.5,3.8-0.9,5.6c-0.1,0.6-0.5,1.1-1.1,1.2c-1.7,0.7-5,0.9-7.9,0.9
	C407.2,76.8,402.2,75.6,398.2,72.2z"/>
<linearGradient id="SVGID_00000152250515194628019450000009830421511276771456_" gradientUnits="userSpaceOnUse" x1="467.79" y1="235.95" x2="467.79" y2="201.03" gradientTransform="matrix(1 0 0 -1 -25.18 279.83)">
	<stop  offset="0" style="stop-color:#27AAE1"/>
	<stop  offset="0.14" style="stop-color:#27A4DB"/>
	<stop  offset="0.33" style="stop-color:#2792CA"/>
	<stop  offset="0.55" style="stop-color:#2774AF"/>
	<stop  offset="0.79" style="stop-color:#264B88"/>
	<stop  offset="1" style="stop-color:#262262"/>
</linearGradient>
<path style="fill:url(#SVGID_00000152250515194628019450000009830421511276771456_);" d="M449.9,76.6c-1.7,0-3.5-0.1-4.9-0.1
	c-0.9,0-1.7,0-2.1,0s-1.2,0-2.1,0.1c-1.2,0-2.6,0.1-3.6,0.1s-1.2-0.6-1.2-0.8s0.3-0.8,1.1-0.8c0.5,0,1,0,1.4-0.1
	c0.6-0.1,0.9-0.6,1-1.9c0.2-1.8,0.2-5.1,0.2-8.9V47.3l-6.1,0.1c-2.4,0-3.4,0.3-3.9,1.1c-0.3,0.4-0.5,0.9-0.7,1.3
	c0,0.4-0.4,0.8-0.8,0.8c-0.4,0-0.8-0.2-0.8-1.1s0.9-4.9,1-5.2s0.2-1.1,0.9-1.1c0.2,0,0.4,0.1,0.6,0.2c0.4,0.2,0.8,0.3,1.3,0.3
	c1.4,0.1,2.9,0.2,4.3,0.2H453c1,0,2-0.1,2.9-0.2c0.4,0,0.6-0.1,0.8-0.1c0.1,0,0.3-0.1,0.4-0.1c0.7,0,0.7,0.8,0.7,1.3s0,1.4,0,2.3
	s0,2.2,0,2.8c0,0.3-0.1,1.1-0.8,1.1s-0.8-0.7-0.9-1.2l0-0.4c-0.1-0.6-0.6-2.1-4.8-2.1l-5.1-0.1V64c0,4.6,0.1,7.4,0.2,9
	c0.1,1.2,0.4,1.7,1.4,1.9c0.7,0.1,1.4,0.2,2.2,0.2c0.7,0,1.1,0.4,1.1,0.8S450.8,76.6,449.9,76.6L449.9,76.6z"/>
<linearGradient id="SVGID_00000094618018081379628770000010141565416696281501_" gradientUnits="userSpaceOnUse" x1="467.82" y1="235.6" x2="467.82" y2="201.44" gradientTransform="matrix(1 0 0 -1 -25.18 279.83)">
	<stop  offset="0" style="stop-color:#27AAE1"/>
	<stop  offset="0.14" style="stop-color:#27A4DB"/>
	<stop  offset="0.33" style="stop-color:#2792CA"/>
	<stop  offset="0.55" style="stop-color:#2774AF"/>
	<stop  offset="0.79" style="stop-color:#264B88"/>
	<stop  offset="1" style="stop-color:#262262"/>
</linearGradient>
<path style="fill:url(#SVGID_00000094618018081379628770000010141565416696281501_);" d="M440,46.9l-6.5,0.2c-2.5,0-3.6,0.3-4.2,1.3
	c-0.3,0.4-0.6,0.9-0.8,1.4c-0.1,0.3-0.2,0.5-0.5,0.5s-0.4-0.2-0.4-0.7c0-0.7,0.8-4.8,0.9-5.1c0.1-0.6,0.2-0.8,0.5-0.8
	s0.8,0.3,1.9,0.5c1.5,0.1,2.9,0.2,4.4,0.2h17.7c1,0,2-0.1,3-0.2c0.7-0.1,1-0.2,1.2-0.2s0.4,0.2,0.4,0.9c0,0.9-0.1,4-0.1,5.1
	c0,0.4-0.1,0.7-0.4,0.7s-0.4-0.2-0.5-0.8v-0.4c-0.1-1.1-1.2-2.4-5.2-2.4l-5.5-0.1V64c0,3.9,0,7.2,0.2,9c0.1,1.2,0.4,2,1.7,2.2
	c0.7,0.1,1.5,0.2,2.2,0.2c0.5,0,0.7,0.2,0.7,0.4s-0.4,0.4-0.9,0.4c-2.9,0-5.8-0.1-7-0.1c-1,0-4,0.1-5.7,0.1c-0.5,0-0.8-0.1-0.8-0.4
	s0.1-0.4,0.7-0.4c0.5,0,1,0,1.5-0.2c0.9-0.2,1.1-1,1.3-2.2c0.2-1.8,0.2-5.1,0.2-9L440,46.9z"/>
<linearGradient id="SVGID_00000066500030138749750400000008448103939301747105_" gradientUnits="userSpaceOnUse" x1="505.465" y1="235.95" x2="505.465" y2="201.05" gradientTransform="matrix(1 0 0 -1 -25.18 279.83)">
	<stop  offset="0" style="stop-color:#27AAE1"/>
	<stop  offset="0.14" style="stop-color:#27A4DB"/>
	<stop  offset="0.33" style="stop-color:#2792CA"/>
	<stop  offset="0.55" style="stop-color:#2774AF"/>
	<stop  offset="0.79" style="stop-color:#264B88"/>
	<stop  offset="1" style="stop-color:#262262"/>
</linearGradient>
<path style="fill:url(#SVGID_00000066500030138749750400000008448103939301747105_);" d="M480.1,77.2c-12.5,0-18.2-8.8-18.2-16.9
	s5.8-16.9,18.7-16.9c11.2,0,18.2,6.2,18.2,16.1C498.7,69.9,491,77.2,480.1,77.2L480.1,77.2z M479.2,46.4C475.4,46.4,469,48,469,59
	c0,8.9,5.3,15.2,12.8,15.2c2.9,0,9.7-1.3,9.7-13.1C491.5,52.4,486.5,46.4,479.2,46.4z"/>
<linearGradient id="SVGID_00000176029465913775269580000000724882831051100058_" gradientUnits="userSpaceOnUse" x1="505.465" y1="235.6" x2="505.465" y2="201.45" gradientTransform="matrix(1 0 0 -1 -25.18 279.83)">
	<stop  offset="0" style="stop-color:#27AAE1"/>
	<stop  offset="0.14" style="stop-color:#27A4DB"/>
	<stop  offset="0.33" style="stop-color:#2792CA"/>
	<stop  offset="0.55" style="stop-color:#2774AF"/>
	<stop  offset="0.79" style="stop-color:#264B88"/>
	<stop  offset="1" style="stop-color:#262262"/>
</linearGradient>
<path style="fill:url(#SVGID_00000176029465913775269580000000724882831051100058_);" d="M462.2,60.3c0-7.2,5.1-16.5,18.3-16.5
	c11,0,17.9,6.1,17.9,15.8s-7,17.3-18.3,17.3C467.4,76.8,462.2,67.8,462.2,60.3z M491.9,61.1c0-9.3-5.6-15.1-12.6-15.1
	c-4.9,0-10.6,2.6-10.6,13c0,8.7,5,15.5,13.2,15.5C484.9,74.5,491.9,73.1,491.9,61.1z"/>
<linearGradient id="SVGID_00000111192361267205366920000016821506031743708832_" gradientUnits="userSpaceOnUse" x1="546.715" y1="235.96" x2="546.715" y2="201.03" gradientTransform="matrix(1 0 0 -1 -25.18 279.83)">
	<stop  offset="0" style="stop-color:#27AAE1"/>
	<stop  offset="0.14" style="stop-color:#27A4DB"/>
	<stop  offset="0.33" style="stop-color:#2792CA"/>
	<stop  offset="0.55" style="stop-color:#2774AF"/>
	<stop  offset="0.79" style="stop-color:#264B88"/>
	<stop  offset="1" style="stop-color:#262262"/>
</linearGradient>
<path style="fill:url(#SVGID_00000111192361267205366920000016821506031743708832_);" d="M533.9,76.6c-1.7,0.1-3.4-0.2-4.9-0.9
	c-1.9-1-3.5-2.8-6.1-6.3c-1-1.3-2-2.7-2.8-3.8c-0.6-0.9-1.1-1.6-1.3-1.9c-0.1-0.1-0.3-0.2-0.5-0.2l-3.9-0.1V64c0,3.1,0,7,0.2,8.9
	c0.2,1.2,0.3,1.8,1.4,1.9c0.7,0.1,1.4,0.1,2.1,0.2c0.5,0,0.9,0.3,0.9,0.8c0,0,0,0,0,0c0,0.2-0.1,0.8-1.3,0.8c-1.7,0-3.9-0.1-5.3-0.1
	H511h-1.8c-1.1,0-2.5,0.1-3.6,0.1s-1.2-0.6-1.2-0.8s0.3-0.8,1.1-0.8c0.5,0,1,0,1.5-0.1c0.6-0.1,0.8-0.6,1-1.9
	c0.2-1.8,0.2-5.1,0.2-8.9v-7.4c0-6.4,0-7.6,0-8.9s-0.4-1.6-1.6-1.9c-0.5-0.1-1.1-0.1-1.6-0.1c-0.8,0-1.1-0.4-1.1-0.8
	c0-0.8,1-0.8,1.4-0.8c1.4,0,3,0,4.2,0.1h1.7c0.8,0,2.2,0,3.6-0.1s2.6,0,3.2,0c2.7,0,6,0.2,8.5,1.8c2,1.4,3.2,3.7,3.2,6.1
	c0,3.2-1.8,6-5.9,9.4l0.3,0.4c3.7,4.5,6.5,8,9,10.5c2.2,2.2,3.7,2.5,4.3,2.7h0.1c0.3,0.1,0.7,0.1,1,0.1c0.5,0,0.9,0.3,0.9,0.8
	c0,0.8-0.9,0.8-1.2,0.8L533.9,76.6z M517,46.9c-0.8,0-1.7,0-2.5,0.1c-0.1,0-0.1,0-0.1,0.2v12.5c0,0.3,0,0.3,0.2,0.4
	c1,0.3,2.1,0.4,3.2,0.4c1.7,0,2.2-0.2,2.9-0.6c1.2-0.9,2.7-2.6,2.7-6C523.3,48.7,519.9,46.9,517,46.9L517,46.9z"/>
<linearGradient id="SVGID_00000132777355440796315020000001611334631917781932_" gradientUnits="userSpaceOnUse" x1="546.755" y1="235.6" x2="546.755" y2="201.44" gradientTransform="matrix(1 0 0 -1 -25.18 279.83)">
	<stop  offset="0" style="stop-color:#27AAE1"/>
	<stop  offset="0.14" style="stop-color:#27A4DB"/>
	<stop  offset="0.33" style="stop-color:#2792CA"/>
	<stop  offset="0.55" style="stop-color:#2774AF"/>
	<stop  offset="0.79" style="stop-color:#264B88"/>
	<stop  offset="1" style="stop-color:#262262"/>
</linearGradient>
<path style="fill:url(#SVGID_00000132777355440796315020000001611334631917781932_);" d="M508.5,56.6c0-6.4,0-7.6,0-8.9
	s-0.5-1.9-1.9-2.3c-0.6-0.1-1.2-0.2-1.7-0.2c-0.4,0-0.7-0.2-0.7-0.4s0.3-0.4,1-0.4c2.3,0,5.1,0.1,6,0.1c1.5,0,5.5-0.1,6.8-0.1
	c2.8,0,6,0.2,8.3,1.8c1.9,1.3,3,3.5,3.1,5.8c0,3.1-1.8,5.9-6,9.3c3.9,4.8,6.9,8.6,9.6,11.2c2.4,2.4,4,2.6,4.7,2.8
	c0.3,0.1,0.7,0.1,1,0.1c0.3,0,0.5,0.2,0.5,0.4c0,0.3-0.3,0.4-0.8,0.4H534c-1.6,0.1-3.3-0.2-4.8-0.8c-1.9-0.9-3.5-2.9-6-6.2
	c-1.7-2.3-3.6-5.1-4.1-5.8c-0.2-0.2-0.5-0.3-0.8-0.3l-3.9-0.1c-0.2,0-0.3,0.1-0.3,0.3c0,0,0,0,0,0.1V64c0,3.9,0,7.2,0.2,9
	c0.2,1.2,0.3,2,1.7,2.2c0.7,0.1,1.4,0.1,2.1,0.2c0.3,0,0.5,0.2,0.5,0.4c0,0.3-0.3,0.4-0.9,0.4c-2.5,0-6.2-0.1-6.8-0.1
	c-0.8,0-3.6,0.1-5.4,0.1c-0.5,0-0.8-0.1-0.8-0.4s0.2-0.4,0.7-0.4c0.5,0,1,0,1.5-0.2c0.9-0.2,1.1-1,1.3-2.2c0.2-1.8,0.2-5.1,0.2-9
	L508.5,56.6z M514,59.8c0,0.4,0.1,0.6,0.4,0.8c1.1,0.3,2.2,0.4,3.3,0.4c1.7,0,2.3-0.2,3.1-0.7c1.3-0.9,2.8-2.8,2.8-6.2
	c0-6-4.1-7.5-6.6-7.5c-0.9,0-1.7,0-2.6,0.2c-0.3,0.1-0.4,0.3-0.4,0.6V59.8z"/>
<linearGradient id="SVGID_00000116929179999906240600000002112646077316834447_" gradientUnits="userSpaceOnUse" x1="575.5499" y1="235.95" x2="575.5499" y2="201.05" gradientTransform="matrix(1 0 0 -1 -25.18 279.83)">
	<stop  offset="0" style="stop-color:#27AAE1"/>
	<stop  offset="0.14" style="stop-color:#27A4DB"/>
	<stop  offset="0.33" style="stop-color:#2792CA"/>
	<stop  offset="0.55" style="stop-color:#2774AF"/>
	<stop  offset="0.79" style="stop-color:#264B88"/>
	<stop  offset="1" style="stop-color:#262262"/>
</linearGradient>
<path style="fill:url(#SVGID_00000116929179999906240600000002112646077316834447_);" d="M548.5,77.2c-2.5,0.1-4.9-0.3-7.2-1.1
	c-0.8-0.4-1.1-0.7-1.1-1.8c0-1.5,0.1-3.4,0.2-5.6c0-1.1,0.5-1.5,0.9-1.5c0.2,0,0.8,0.1,0.8,1.1c0,0.7,0.2,1.4,0.4,2.1
	c1.1,3.6,5.3,3.9,6.6,3.9c3.3,0,5.7-2,5.7-5c0-1.6-0.3-3.4-4.1-5.6l-2.5-1.5c-5-2.9-7-5.8-7-9.9c0-5.1,4.8-8.8,11.4-8.8
	c2.1,0,4.2,0.2,6.3,0.7c0.2,0,0.9,0.2,0.9,0.9c0,0.2,0,0.4,0,0.7c0,0.8-0.1,2-0.1,4.4c0,1.4-0.5,1.7-0.9,1.7c-0.2,0-0.8-0.1-0.8-1.1
	c-0.1-0.9-0.4-1.8-1-2.5c-1.2-1.3-2.9-2-4.6-1.9c-2.8,0-5.6,1.4-5.6,4.2c0,1.8,0.7,3.2,4.4,5.2l1.8,1c5.4,3,7.7,6.1,7.7,10.5
	c0,3.4-1.4,6-4.5,8.2C553.8,77,550.7,77.2,548.5,77.2L548.5,77.2z"/>
<linearGradient id="SVGID_00000047052853484869565130000017908920965997142193_" gradientUnits="userSpaceOnUse" x1="575.495" y1="235.6" x2="575.495" y2="201.45" gradientTransform="matrix(1 0 0 -1 -25.18 279.83)">
	<stop  offset="0" style="stop-color:#27AAE1"/>
	<stop  offset="0.14" style="stop-color:#27A4DB"/>
	<stop  offset="0.33" style="stop-color:#2792CA"/>
	<stop  offset="0.55" style="stop-color:#2774AF"/>
	<stop  offset="0.79" style="stop-color:#264B88"/>
	<stop  offset="1" style="stop-color:#262262"/>
</linearGradient>
<path style="fill:url(#SVGID_00000047052853484869565130000017908920965997142193_);" d="M541.4,75.7c-0.7-0.3-0.8-0.5-0.8-1.4
	c0-2.3,0.2-4.9,0.2-5.6s0.2-1.1,0.5-1.1s0.5,0.4,0.5,0.7c0,0.7,0.2,1.5,0.4,2.2c0.9,3.1,4.2,4.2,6.9,4.2c3.8,0,6-2.4,6-5.4
	c0-1.8-0.4-3.7-4.3-6l-2.5-1.4c-5.2-3-6.8-5.9-6.8-9.6c0-5.2,5-8.5,11-8.5c2.1,0,4.2,0.2,6.2,0.7c0.4,0.1,0.6,0.2,0.6,0.5
	c0,0.6-0.2,1.7-0.2,5.1c0,0.9-0.2,1.3-0.5,1.3s-0.4-0.2-0.4-0.7c-0.1-1-0.5-2-1.1-2.8c-1.2-1.4-3-2.1-4.9-2c-3.1,0-6,1.6-6,4.5
	c0,1.9,0.7,3.4,4.6,5.6l1.8,1c5.8,3.2,7.5,6.4,7.5,10.2c0,3.1-1.2,5.7-4.4,7.9c-2.1,1.5-5,1.7-7.3,1.7
	C546,76.9,543.6,76.5,541.4,75.7z"/>
<rect x="183.4" y="95.2" class="st23" width="39.7" height="2.3"/>
<rect x="500.8" y="95.2" class="st23" width="43.6" height="2.3"/>
<linearGradient id="SVGID_00000082340500726820435060000005612102937380396727_" gradientUnits="userSpaceOnUse" x1="41.92" y1="238.64" x2="177.59" y2="238.64" gradientTransform="matrix(1 0 0 -1 -25.18 279.83)">
	<stop  offset="0" style="stop-color:#27AAE1"/>
	<stop  offset="0.14" style="stop-color:#27A4DB"/>
	<stop  offset="0.33" style="stop-color:#2792CA"/>
	<stop  offset="0.55" style="stop-color:#2774AF"/>
	<stop  offset="0.79" style="stop-color:#264B88"/>
	<stop  offset="1" style="stop-color:#262262"/>
</linearGradient>
<path style="fill:url(#SVGID_00000082340500726820435060000005612102937380396727_);" d="M79.9,33.7c2.7-2.7,7.2-2.7,9.9,0
	c0,0,0,0,0,0l48.3,48.3l14.2-14.2L84.6,0L16.7,67.8l14.5,14.6L79.9,33.7z"/>
<linearGradient id="SVGID_00000181805276492660169910000000857562355178471847_" gradientUnits="userSpaceOnUse" x1="25.18" y1="168.975" x2="160.84" y2="168.975" gradientTransform="matrix(1 0 0 -1 -25.18 279.83)">
	<stop  offset="0" style="stop-color:#27AAE1"/>
	<stop  offset="0.14" style="stop-color:#27A4DB"/>
	<stop  offset="0.33" style="stop-color:#2792CA"/>
	<stop  offset="0.55" style="stop-color:#2774AF"/>
	<stop  offset="0.79" style="stop-color:#264B88"/>
	<stop  offset="1" style="stop-color:#262262"/>
</linearGradient>
<path style="fill:url(#SVGID_00000181805276492660169910000000857562355178471847_);" d="M72.5,118.3c-2.7,2.7-7.2,2.7-9.9,0
	c0,0,0,0,0,0L14.2,70L0,84.2l67.8,67.8l67.8-67.8l-14.6-14.6L72.5,118.3z"/>
<path class="st26" d="M76.7,127.6c5.5-2.6,11-6.6,18.2-13.4c9-8.3,17.5-19.8,27.6-34c2.9-4.1,4.2-9.1,5.5-12.8c-3.7-0.6-6.8,0-11,0
	c-7.5-0.1-14.9,1.3-21.8,4.2c-5.9,2.4-11,6.4-14.8,11.4c-3.4,4.4-5.6,9.6-6.4,15.1c-0.8,7.9-1.2,15.8-1.1,23.7c0,0,0.1,7.4,0.2,7.3
	C74.4,128.7,75.6,128.2,76.7,127.6z"/>
<path class="st26" d="M73.2,129.1c0,0-64.4,20.6-38.3-14.5c23.4-31.5,48.7-3.2,48.7-3.2L73.2,129.1z"/>
<path class="st27" d="M70.8,124.1c-1.1,0.4-2.3,0.8-3.6,1.2c-4.2,1.3-14.6,2.4-20.1,2.4s-12.7-0.8-14.5-2.9c-3-3.6-3.6-5.9-1.5-14
	c2.2-8.5,7.5-18.9,16.1-31.6c8.1-12,23.2-23.5,38.3-29.4c5.8-2.2,11.2-1.5,15.7-1.5l3.2,0.1l7.7-0.7c7,0,14,1.2,16.3,6.1
	c3.2,6.8,0.2,16.8-8.1,26.6C109,93.8,99.7,104.6,90,112.2C82.3,118.3,76.5,121.9,70.8,124.1L70.8,124.1z"/>
<radialGradient id="SVGID_00000176004266218885273880000012142505513208836749_" cx="7768.4741" cy="-1965.5895" r="123.1" gradientTransform="matrix(0.93 -0.36 -0.36 -0.93 -7950.4399 1052.22)" gradientUnits="userSpaceOnUse">
	<stop  offset="0" style="stop-color:#F9B6A5"/>
	<stop  offset="0" style="stop-color:#F9B6A3"/>
	<stop  offset="0" style="stop-color:#FAB89C"/>
	<stop  offset="0" style="stop-color:#FABA91"/>
	<stop  offset="0" style="stop-color:#FBBD80"/>
	<stop  offset="0" style="stop-color:#FCC26A"/>
	<stop  offset="0" style="stop-color:#FEC74F"/>
	<stop  offset="0" style="stop-color:#FFCA3E"/>
	<stop  offset="0.32" style="stop-color:#FFC73C"/>
	<stop  offset="0.55" style="stop-color:#FDBE38"/>
	<stop  offset="0.76" style="stop-color:#FBAE2F"/>
	<stop  offset="0.95" style="stop-color:#F89724"/>
	<stop  offset="1" style="stop-color:#F79020"/>
</radialGradient>
<path style="fill:url(#SVGID_00000176004266218885273880000012142505513208836749_);" d="M113.2,48.2h-12.8
	c-15.8,0.1-41.3,14.9-53,32.2c-8.9,13.2-13.8,23.1-15.9,31.2c-2,7.7-1.5,9.5,1.3,12.8c1.2,1.4,7,2.4,13.5,2.4
	c5.3,0,15.6-1.1,19.8-2.4c5.9-1.8,11.8-4.6,22.4-12.9c9.5-7.5,18.9-18.3,30-31.5C132.9,62.7,128.9,48.1,113.2,48.2z"/>
<linearGradient id="SVGID_00000049921014810869802300000000004128067929721218_" gradientUnits="userSpaceOnUse" x1="-3808.5764" y1="177.532" x2="-3889.5066" y2="192.702" gradientTransform="matrix(-1 0 0 -1 -3787.9299 280.72)">
	<stop  offset="0" style="stop-color:#FFFFFF"/>
	<stop  offset="1" style="stop-color:#FFFFFF;stop-opacity:0"/>
</linearGradient>
<path style="fill:url(#SVGID_00000049921014810869802300000000004128067929721218_);" d="M40.8,90.7C36,99,33,105.8,31.5,111.6
	c-1.5,6-1.5,8.4-0.2,10.7c0.1-0.3-0.1-0.7,3.6-7.7c1.2-2.8,7.3-3.8,10.3-4.3c12.3-1.9,55.8-10.2,75.9-47.1L40.8,90.7z"/>
<path class="st30" d="M121.8,61.7c0.2-0.8,0.3-1.6,0.3-2.4c-4.1-25.9-26.7-44.6-51.8-42c-26,2.7-45.5,27.2-42.1,54.6
	c1.5,10.5,5.2,20.6,10.7,29.7c0.9,1.5,7.1,1.9,8.3,1.8C83.5,100,112.8,82.7,121.8,61.7z"/>
<radialGradient id="SVGID_00000044142802221104704130000001468457788120901767_" cx="7812.1343" cy="-1900.8595" r="110.24" gradientTransform="matrix(0.93 -0.36 -0.36 -0.93 -7950.4399 1052.22)" gradientUnits="userSpaceOnUse">
	<stop  offset="0" style="stop-color:#FBB470;stop-opacity:0.8"/>
	<stop  offset="0.18" style="stop-color:#FBB56C;stop-opacity:0.8"/>
	<stop  offset="0.31" style="stop-color:#FCB660;stop-opacity:0.8"/>
	<stop  offset="0.43" style="stop-color:#FCB94C;stop-opacity:0.8"/>
	<stop  offset="0.54" style="stop-color:#FEBD2F;stop-opacity:0.8"/>
	<stop  offset="0.64" style="stop-color:#FFC20E;stop-opacity:0.8"/>
	<stop  offset="0.74" style="stop-color:#FDB511;stop-opacity:0.82"/>
	<stop  offset="0.89" style="stop-color:#F8931A;stop-opacity:0.86"/>
	<stop  offset="1" style="stop-color:#F37322;stop-opacity:0.9"/>
</radialGradient>
<path style="fill:url(#SVGID_00000044142802221104704130000001468457788120901767_);" d="M121.8,61.7c0.2-0.8,0.3-1.6,0.3-2.4
	c-4.1-25.9-26.7-44.6-51.8-42c-26,2.7-45.5,27.2-42.1,54.6c1.5,10.5,5.2,20.6,10.7,29.7c0.9,1.5,7.1,1.9,8.3,1.8
	C83.5,100,112.8,82.7,121.8,61.7z"/>
<linearGradient id="SVGID_00000160905339863084348030000016119551505875971737_" gradientUnits="userSpaceOnUse" x1="-3850.6167" y1="263.5924" x2="-3847.7966" y2="205.5824" gradientTransform="matrix(-1 0 0 -1 -3787.9299 280.72)">
	<stop  offset="0" style="stop-color:#FFFFFF"/>
	<stop  offset="1" style="stop-color:#FFFFFF;stop-opacity:0"/>
</linearGradient>
<path style="fill:url(#SVGID_00000160905339863084348030000016119551505875971737_);" d="M67.7,19.2c0.7-0.7,1.5-1.3,2.4-1.8
	l0.4-0.2h-0.2c-2,0.2-4,0.5-6,1c-12.7,18.3-14.1,41.2-5.1,59.4C52.2,59.1,54.8,37,67.7,19.2z"/>
<path class="st33" d="M53.2,64.6c-2.2-18.2,0.3-34,11.5-46.2c0.4-0.4-2.1-0.2-4.7,0.8c-21.3,8.2-33.2,28.9-28,53.3
	c2.6,11.7,7.6,24.3,12.3,30.4c1.1,1.4,7.2,1,8.6,0.7c5-1,9.9-2.2,14.8-3.8C62.8,91.8,54.8,78.1,53.2,64.6z"/>
<radialGradient id="SVGID_00000049224078521487182710000011752073394625009335_" cx="7840.3643" cy="-1934.5394" r="59.44" gradientTransform="matrix(0.93 -0.36 -0.36 -0.93 -7950.4399 1052.22)" gradientUnits="userSpaceOnUse">
	<stop  offset="0" style="stop-color:#FCF6B5;stop-opacity:0.8"/>
	<stop  offset="0.12" style="stop-color:#FCF5B1;stop-opacity:0.8"/>
	<stop  offset="0.22" style="stop-color:#FCF1A5;stop-opacity:0.8"/>
	<stop  offset="0.3" style="stop-color:#FDEC90;stop-opacity:0.8"/>
	<stop  offset="0.39" style="stop-color:#FDE373;stop-opacity:0.8"/>
	<stop  offset="0.46" style="stop-color:#FED94D;stop-opacity:0.8"/>
	<stop  offset="0.54" style="stop-color:#FFCC1F;stop-opacity:0.8"/>
	<stop  offset="0.57" style="stop-color:#FFC60B;stop-opacity:0.8"/>
	<stop  offset="1" style="stop-color:#FAA81C;stop-opacity:0.8"/>
</radialGradient>
<path style="fill:url(#SVGID_00000049224078521487182710000011752073394625009335_);" d="M52.3,64.7C50,46.4,52.5,30.5,63.7,18.3
	c0.3-0.4-2.1-0.3-4.7,0.8c-14.2,6.1-23.2,16.5-27,30.4c-1.3,4.7-2.9,17-1.2,24c2.8,10.9,6.4,22.9,9.9,29.2
	c0.8,1.6,10.1,1.5,11.4,1.2c5-1,10-2.2,14.8-3.8C62,92.1,53.9,78.3,52.3,64.7z"/>
<linearGradient id="SVGID_00000096054210903277950000000007756846952364583073_" gradientUnits="userSpaceOnUse" x1="-3873.9053" y1="239.2485" x2="-3859.5955" y2="224.6785" gradientTransform="matrix(-1 0 0 -1 -3787.9299 280.72)">
	<stop  offset="0" style="stop-color:#FFFFFF"/>
	<stop  offset="1" style="stop-color:#FFFFFF;stop-opacity:0"/>
</linearGradient>
<path style="fill:url(#SVGID_00000096054210903277950000000007756846952364583073_);" d="M73.5,45.6c-1.5,1.5-3,2.8-4.4,4.1
	c-0.4,0.3-0.3,0.9,0.3,1.3c3.1,2,6,4.1,8.7,6.2c0.4,0.4,1,0.4,1.4,0c1.1-1.3,2.3-2.7,3.6-4.2c0.4-0.4,0.3-1-0.1-1.4
	c-2.5-2.1-5.1-4.1-7.8-6C74.7,45.1,74,45.2,73.5,45.6z M81.7,37.5c-1.7,1.8-3.4,3.5-5,5.1c-0.4,0.3-0.5,0.8-0.2,1.2
	c0,0.1,0.1,0.1,0.2,0.2c2.6,1.8,5.2,3.8,7.6,5.9c0.4,0.3,1,0.3,1.3-0.1c0,0,0,0,0-0.1c1.4-1.6,2.8-3.4,4.2-5.2
	c0.4-0.4,0.5-1.1,0.1-1.5c-2.1-2.1-4.3-4-6.7-5.8C82.8,36.9,82.1,37,81.7,37.5z"/>
<text transform="matrix(1.15 0 0 1 231.7998 102.5698)" class="st36 st37 st38">I</text>
<text transform="matrix(1.15 0 0 1 242.9663 102.5698)" class="st36 st37 st39">NTELLIGENCE </text>
<text transform="matrix(1.15 0 0 1 403.334 102.5698)" class="st36 st37 st40">S</text>
<text transform="matrix(1.15 0 0 1 417.6055 102.5698)" class="st36 st37 st39">CHOO</text>
<text transform="matrix(1.15 0 0 1 482.2012 102.5698)" class="st36 st37 st39 st41">L</text>
</svg>
